<svg width="80" height="80" viewBox="0 0 80 80" fill="none" xmlns="http://www.w3.org/2000/svg">
<path d="M40.0001 6.66667C31.2667 6.66667 24.1667 13.7667 24.1667 22.5C24.1667 31.0667 30.8667 38 39.6001 38.3C39.8667 38.2667 40.1334 38.2667 40.3334 38.3C40.4001 38.3 40.4334 38.3 40.5001 38.3C40.5334 38.3 40.5334 38.3 40.5667 38.3C49.1001 38 55.8001 31.0667 55.8334 22.5C55.8334 13.7667 48.7334 6.66667 40.0001 6.66667Z" fill="#2252A0"/>
<path d="M56.9334 47.1667C47.6334 40.9667 32.4668 40.9667 23.1001 47.1667C18.8668 50 16.5334 53.8333 16.5334 57.9333C16.5334 62.0333 18.8668 65.8333 23.0668 68.6333C27.7334 71.7667 33.8668 73.3333 40.0001 73.3333C46.1334 73.3333 52.2668 71.7667 56.9334 68.6333C61.1334 65.8 63.4668 62 63.4668 57.8667C63.4335 53.7667 61.1334 49.9667 56.9334 47.1667Z" fill="#2252A0"/>
</svg>
