<svg width="19" height="19" viewBox="0 0 19 19" fill="none" xmlns="http://www.w3.org/2000/svg">
<path d="M13.9702 6.8825L7.55018 3.6725C3.23768 1.5125 1.46768 3.2825 3.62768 7.595L4.28018 8.9C4.46768 9.2825 4.46768 9.725 4.28018 10.1075L3.62768 11.405C1.46768 15.7175 3.23018 17.4875 7.55018 15.3275L13.9702 12.1175C16.8502 10.6775 16.8502 8.3225 13.9702 6.8825ZM11.5477 10.0625H7.49768C7.19018 10.0625 6.93518 9.8075 6.93518 9.5C6.93518 9.1925 7.19018 8.9375 7.49768 8.9375H11.5477C11.8552 8.9375 12.1102 9.1925 12.1102 9.5C12.1102 9.8075 11.8552 10.0625 11.5477 10.0625Z" fill="#2252A0"/>
</svg>
