<svg width="17" height="17" viewBox="0 0 17 17" fill="none" xmlns="http://www.w3.org/2000/svg">
<path d="M6.31095 16.5L5.99254 13.94C5.82007 13.8733 5.65755 13.7933 5.50498 13.7C5.3524 13.6067 5.20315 13.5067 5.05721 13.4L2.68905 14.4L0.5 10.6L2.54975 9.04C2.53648 8.94667 2.52985 8.85667 2.52985 8.77V8.23C2.52985 8.14333 2.53648 8.05333 2.54975 7.96L0.5 6.4L2.68905 2.6L5.05721 3.6C5.20315 3.49333 5.35572 3.39333 5.51493 3.3C5.67413 3.20667 5.83333 3.12667 5.99254 3.06L6.31095 0.5H10.6891L11.0075 3.06C11.1799 3.12667 11.3425 3.20667 11.495 3.3C11.6476 3.39333 11.7968 3.49333 11.9428 3.6L14.3109 2.6L16.5 6.4L14.4502 7.96C14.4635 8.05333 14.4701 8.14333 14.4701 8.23V8.77C14.4701 8.85667 14.4569 8.94667 14.4303 9.04L16.4801 10.6L14.291 14.4L11.9428 13.4C11.7968 13.5067 11.6443 13.6067 11.4851 13.7C11.3259 13.7933 11.1667 13.8733 11.0075 13.94L10.6891 16.5H6.31095ZM8.5398 11.3C9.30929 11.3 9.966 11.0267 10.51 10.48C11.0539 9.93333 11.3259 9.27333 11.3259 8.5C11.3259 7.72667 11.0539 7.06667 10.51 6.52C9.966 5.97333 9.30929 5.7 8.5398 5.7C7.75705 5.7 7.09702 5.97333 6.5597 6.52C6.02239 7.06667 5.75373 7.72667 5.75373 8.5C5.75373 9.27333 6.02239 9.93333 6.5597 10.48C7.09702 11.0267 7.75705 11.3 8.5398 11.3Z" fill="#2252A0"/>
</svg>
