<svg width="17" height="16" viewBox="0 0 17 16" fill="none" xmlns="http://www.w3.org/2000/svg">
<path d="M6.44001 13.78C6.31335 13.78 6.18668 13.7333 6.08668 13.6333C5.89335 13.44 5.89335 13.12 6.08668 12.9267L10.4333 8.58001C10.7533 8.26001 10.7533 7.74001 10.4333 7.42001L6.08668 3.07335C5.89335 2.88001 5.89335 2.56001 6.08668 2.36668C6.28001 2.17335 6.60001 2.17335 6.79335 2.36668L11.14 6.71335C11.48 7.05335 11.6733 7.51335 11.6733 8.00001C11.6733 8.48668 11.4867 8.94668 11.14 9.28668L6.79335 13.6333C6.69335 13.7267 6.56668 13.78 6.44001 13.78Z" fill="white"/>
</svg>
