<svg width="16" height="16" viewBox="0 0 16 16" fill="none" xmlns="http://www.w3.org/2000/svg">
<path d="M2.98012 8.1133C2.85345 8.1133 2.72678 8.06665 2.62678 7.96665L1.82012 7.15997L1.01345 7.96665C0.820113 8.15999 0.500115 8.15999 0.306781 7.96665C0.113448 7.77332 0.113448 7.45332 0.306781 7.25999L1.46678 6.09999C1.66011 5.90666 1.98012 5.90666 2.17345 6.09999L3.33345 7.25999C3.52678 7.45332 3.52678 7.77332 3.33345 7.96665C3.24012 8.06665 3.10678 8.1133 2.98012 8.1133Z" fill="#2252A0"/>
<path d="M14.1733 10.0467C14.0466 10.0467 13.92 10 13.82 9.9L12.66 8.74001C12.4666 8.54668 12.4666 8.22668 12.66 8.03334C12.8533 7.84001 13.1733 7.84001 13.3666 8.03334L14.1733 8.84003L14.98 8.03334C15.1733 7.84001 15.4933 7.84001 15.6866 8.03334C15.88 8.22668 15.88 8.54668 15.6866 8.74001L14.5266 9.9C14.4333 9.99334 14.3 10.0467 14.1733 10.0467Z" fill="#2252A0"/>
<path d="M14.1734 10.0467C13.9 10.0467 13.6734 9.82001 13.6734 9.54667V8C13.6734 4.87334 11.1267 2.32666 8.00004 2.32666C6.27337 2.32666 4.66004 3.1 3.57337 4.45333C3.40004 4.66666 3.0867 4.69999 2.87337 4.53333C2.66004 4.35999 2.62004 4.04667 2.79337 3.83334C4.06671 2.24 5.9667 1.33334 8.00004 1.33334C11.68 1.33334 14.6734 4.32668 14.6734 8.00668V9.55335C14.6734 9.82001 14.4534 10.0467 14.1734 10.0467Z" fill="#2252A0"/>
<path d="M8.00015 14.6733C4.32015 14.6733 1.32682 11.68 1.32682 7.99996V6.45329C1.32682 6.17995 1.55349 5.95329 1.82682 5.95329C2.10015 5.95329 2.32682 6.17995 2.32682 6.45329V7.99996C2.32682 11.1266 4.87349 13.6733 8.00015 13.6733C9.72682 13.6733 11.3402 12.9 12.4268 11.5466C12.6002 11.3333 12.9135 11.2933 13.1268 11.4666C13.3402 11.64 13.3802 11.9533 13.2068 12.1666C11.9335 13.76 10.0335 14.6733 8.00015 14.6733Z" fill="#2252A0"/>
</svg>
