<svg width="19" height="20" viewBox="0 0 19 20" fill="none" xmlns="http://www.w3.org/2000/svg">
<path d="M3.5 11.874C1.77477 11.4299 0.5 9.86384 0.5 8C0.5 5.79086 2.29086 4 4.5 4C4.66933 4 4.8362 4.01052 5 4.03095C5.61775 2.28316 7.04072 1 9.00004 1C10.7124 1 12.2898 1.96516 13.0503 3.37295C13.48 3.13528 13.9743 3 14.5001 3C16.1569 3 17.5001 4.34315 17.5001 6C17.5001 7.04349 16.9673 7.96254 16.159 8.5C17.2344 8.84372 18.0338 9.85132 18.0338 11.0408C18.0338 12.5137 16.8398 13.7077 15.3669 13.7077C13.894 13.7077 12.9446 12.8538 12.5 12C11.5155 12.5095 10.3043 12.1244 9.79484 11.1399M3.5 11.874C3.5 13.3469 4.69401 14.6669 6.1669 14.6669C7.76705 14.6669 11.5876 14.5075 11.5876 16.641V18.7745M3.5 11.874C3.5 10.4011 4.69401 9.33309 6.1669 9.33309M7.36981 6.00393C7.92408 5.04391 9.15166 4.71498 10.1117 5.26925C11.0717 5.82352 11.4006 7.0511 10.8464 8.01112" stroke="#3D3D3D" stroke-linecap="round" stroke-linejoin="round"/>
</svg>
