<svg width="20" height="20" viewBox="0 0 20 20" fill="none" xmlns="http://www.w3.org/2000/svg">
<path d="M10 18.9583C8.50834 18.9583 7.29168 17.7417 7.29168 16.25V15.625H3.75001C3.13334 15.625 2.55834 15.3833 2.12501 14.9417C1.70001 14.525 1.45834 13.95 1.45834 13.3333C1.45834 12.1667 2.36668 11.1667 3.53334 11.05C3.57501 11.0417 3.65834 11.0417 3.75001 11.0417H16.25C16.3417 11.0417 16.425 11.0417 16.5083 11.0583C17 11.1 17.4917 11.3333 17.875 11.725C18.35 12.1833 18.5917 12.85 18.5333 13.5333C18.4333 14.7083 17.3917 15.625 16.1583 15.625H12.7083V16.25C12.7083 17.7417 11.4917 18.9583 10 18.9583ZM3.75001 12.2917C3.73334 12.2917 3.66668 12.2917 3.65001 12.3C3.12501 12.35 2.70834 12.8083 2.70834 13.3333C2.70834 13.6083 2.81668 13.8667 3.00834 14.0583C3.20834 14.2667 3.46668 14.375 3.75001 14.375H7.91668C8.25834 14.375 8.54168 14.6583 8.54168 15V16.25C8.54168 17.05 9.20001 17.7083 10 17.7083C10.8 17.7083 11.4583 17.05 11.4583 16.25V15C11.4583 14.6583 11.7417 14.375 12.0833 14.375H16.1583C16.7333 14.375 17.2417 13.95 17.2917 13.425C17.3167 13.1083 17.2083 12.8167 16.9917 12.6C16.8083 12.4167 16.5917 12.3083 16.3583 12.2917L16.25 12.2833H3.75001V12.2917Z" fill="#2252A0"/>
<path d="M16.4083 12.3C16.375 12.3 16.3417 12.3 16.3083 12.2917H3.74999C3.57499 12.325 3.36666 12.275 3.23333 12.1583C3.09166 12.05 2.98333 11.8833 2.97499 11.7083L2.56666 4.44999C2.48333 3.59999 2.76666 2.72499 3.35833 2.06666C3.94999 1.41666 4.79166 1.04166 5.67499 1.04166H14.325C15.2083 1.04166 16.05 1.41666 16.6417 2.07499C17.225 2.72499 17.5167 3.59999 17.4333 4.46666L17.0333 11.7083C17.025 11.8833 16.9417 12.05 16.8 12.1583C16.6917 12.25 16.55 12.3 16.4083 12.3ZM4.18333 11.0417H15.8167L16.1833 4.38332C16.1833 4.37499 16.1833 4.36666 16.1833 4.34999C16.2333 3.81666 16.0667 3.29999 15.7083 2.90832C15.35 2.51666 14.85 2.29166 14.3167 2.29166H5.67499C5.14999 2.29166 4.64166 2.51666 4.28333 2.90832C3.92499 3.30832 3.75833 3.81666 3.81666 4.34999L4.18333 11.0417Z" fill="#2252A0"/>
<path d="M6.65833 6.45832C6.31666 6.45832 6.03333 6.17499 6.03333 5.83332V1.66666C6.03333 1.32499 6.31666 1.04166 6.65833 1.04166C6.99999 1.04166 7.28333 1.32499 7.28333 1.66666V5.83332C7.28333 6.17499 6.99999 6.45832 6.65833 6.45832Z" fill="#2252A0"/>
<path d="M10 3.95832C9.65833 3.95832 9.375 3.67499 9.375 3.33332V1.66666C9.375 1.32499 9.65833 1.04166 10 1.04166C10.3417 1.04166 10.625 1.32499 10.625 1.66666V3.33332C10.625 3.67499 10.3417 3.95832 10 3.95832Z" fill="#2252A0"/>
</svg>
