<svg width="19" height="19" viewBox="0 0 19 19" fill="none" xmlns="http://www.w3.org/2000/svg">
<path d="M12.9831 17.5625H5.12311C3.02311 17.5625 1.68811 16.31 1.56811 14.2175L1.17811 8.03004C1.11811 7.09254 1.44061 6.19254 2.08561 5.51004C2.72311 4.82754 3.62311 4.43754 4.55311 4.43754C4.79311 4.43754 5.02561 4.29504 5.13811 4.07004L5.67811 2.99754C6.12061 2.12004 7.23061 1.43754 8.19811 1.43754H9.91561C10.8831 1.43754 11.9856 2.12004 12.4281 2.99004L12.9681 4.08504C13.0806 4.29504 13.3056 4.43754 13.5531 4.43754C14.4831 4.43754 15.3831 4.82754 16.0206 5.51004C16.6656 6.20004 16.9881 7.09254 16.9281 8.03004L16.5381 14.225C16.4031 16.3475 15.1056 17.5625 12.9831 17.5625ZM8.19811 2.56254C7.64311 2.56254 6.93811 2.99754 6.68311 3.50004L6.14311 4.58004C5.82811 5.18754 5.22061 5.56254 4.55311 5.56254C3.92311 5.56254 3.33811 5.81754 2.90311 6.27504C2.47561 6.73254 2.25811 7.33254 2.30311 7.95504L2.69311 14.15C2.78311 15.665 3.60061 16.4375 5.12311 16.4375H12.9831C14.4981 16.4375 15.3156 15.665 15.4131 14.15L15.8031 7.95504C15.8406 7.33254 15.6306 6.73254 15.2031 6.27504C14.7681 5.81754 14.1831 5.56254 13.5531 5.56254C12.8856 5.56254 12.2781 5.18754 11.9631 4.59504L11.4156 3.50004C11.1681 3.00504 10.4631 2.57004 9.90811 2.57004H8.19811V2.56254Z" fill="#3D3D3D"/>
<path d="M10.1781 7.06254H7.9281C7.6206 7.06254 7.3656 6.80754 7.3656 6.50004C7.3656 6.19254 7.6206 5.93754 7.9281 5.93754H10.1781C10.4856 5.93754 10.7406 6.19254 10.7406 6.50004C10.7406 6.80754 10.4856 7.06254 10.1781 7.06254Z" fill="#3D3D3D"/>
<path d="M9.0531 14.5625C7.3956 14.5625 6.0531 13.22 6.0531 11.5625C6.0531 9.90504 7.3956 8.56254 9.0531 8.56254C10.7106 8.56254 12.0531 9.90504 12.0531 11.5625C12.0531 13.22 10.7106 14.5625 9.0531 14.5625ZM9.0531 9.68754C8.0181 9.68754 7.1781 10.5275 7.1781 11.5625C7.1781 12.5975 8.0181 13.4375 9.0531 13.4375C10.0881 13.4375 10.9281 12.5975 10.9281 11.5625C10.9281 10.5275 10.0881 9.68754 9.0531 9.68754Z" fill="#3D3D3D"/>
</svg>
