<svg width="20" height="20" viewBox="0 0 20 20" fill="none" xmlns="http://www.w3.org/2000/svg">
<path d="M3.27499 13.8583C3.11665 13.8583 2.95832 13.8 2.83332 13.675C2.59165 13.4333 2.59165 13.0333 2.83332 12.7917L12.7917 2.83332C13.0333 2.59165 13.4333 2.59165 13.675 2.83332C13.9167 3.07499 13.9167 3.47499 13.675 3.71665L3.71665 13.6833C3.59999 13.8 3.43332 13.8583 3.27499 13.8583Z" fill="#2252A0"/>
<path d="M9.24999 15.8583C9.09166 15.8583 8.93333 15.8 8.80833 15.675C8.56666 15.4333 8.56666 15.0333 8.80833 14.7917L9.80833 13.7917C10.05 13.55 10.45 13.55 10.6917 13.7917C10.9333 14.0333 10.9333 14.4333 10.6917 14.675L9.69166 15.675C9.57499 15.7917 9.41666 15.8583 9.24999 15.8583Z" fill="#2252A0"/>
<path d="M11.4917 13.6167C11.3333 13.6167 11.175 13.5583 11.05 13.4333C10.8083 13.1917 10.8083 12.7917 11.05 12.55L13.0417 10.5583C13.2833 10.3167 13.6833 10.3167 13.925 10.5583C14.1667 10.8 14.1667 11.2 13.925 11.4417L11.9333 13.4333C11.8167 13.55 11.65 13.6167 11.4917 13.6167Z" fill="#2252A0"/>
<path d="M9.25 18.9583C8.43333 18.9583 7.61667 18.4583 6.625 17.4667L2.53333 13.375C0.541666 11.3833 0.55 10.1 2.55833 8.09167L8.09167 2.55833C10.1 0.55 11.3833 0.541666 13.375 2.53333L17.4667 6.625C19.4583 8.61667 19.45 9.9 17.4417 11.9083L11.9083 17.4417C10.9 18.45 10.075 18.9583 9.25 18.9583ZM10.75 2.29167C10.3167 2.29167 9.76667 2.65 8.975 3.44167L3.44167 8.975C2.65 9.76667 2.29167 10.3167 2.29167 10.7417C2.29167 11.175 2.625 11.7 3.41667 12.4917L7.50833 16.5833C8.3 17.375 8.81667 17.7083 9.25 17.7083C9.25 17.7083 9.25 17.7083 9.25833 17.7083C9.69167 17.7083 10.2333 17.35 11.025 16.5583L16.5583 11.025C17.35 10.2333 17.7083 9.68333 17.7083 9.25833C17.7083 8.825 17.375 8.3 16.5833 7.50833L12.4917 3.41667C11.7083 2.625 11.1833 2.29167 10.75 2.29167Z" fill="#2252A0"/>
<path d="M18.3333 18.9583H1.66666C1.32499 18.9583 1.04166 18.675 1.04166 18.3333C1.04166 17.9917 1.32499 17.7083 1.66666 17.7083H18.3333C18.675 17.7083 18.9583 17.9917 18.9583 18.3333C18.9583 18.675 18.675 18.9583 18.3333 18.9583Z" fill="#2252A0"/>
</svg>
