<svg width="19" height="19" viewBox="0 0 19 19" fill="none" xmlns="http://www.w3.org/2000/svg">
<path d="M10.3375 7.43748H1.71252C1.40502 7.43748 1.15002 7.18248 1.15002 6.87498C1.15002 6.56748 1.40502 6.31248 1.71252 6.31248H10.3375C10.645 6.31248 10.9 6.56748 10.9 6.87498C10.9 7.18248 10.645 7.43748 10.3375 7.43748Z" fill="#3D3D3D"/>
<path d="M6.21252 13.4375H4.71252C4.40502 13.4375 4.15002 13.1825 4.15002 12.875C4.15002 12.5675 4.40502 12.3125 4.71252 12.3125H6.21252C6.52002 12.3125 6.77502 12.5675 6.77502 12.875C6.77502 13.1825 6.52002 13.4375 6.21252 13.4375Z" fill="#3D3D3D"/>
<path d="M11.0875 13.4375H8.08752C7.78002 13.4375 7.52502 13.1825 7.52502 12.875C7.52502 12.5675 7.78002 12.3125 8.08752 12.3125H11.0875C11.395 12.3125 11.65 12.5675 11.65 12.875C11.65 13.1825 11.395 13.4375 11.0875 13.4375Z" fill="#3D3D3D"/>
<path d="M13.3825 16.4375H5.04252C2.05752 16.4375 1.15002 15.5375 1.15002 12.5825V6.41748C1.15002 3.46248 2.05752 2.56248 5.04252 2.56248H10.3375C10.645 2.56248 10.9 2.81748 10.9 3.12498C10.9 3.43248 10.645 3.68748 10.3375 3.68748H5.04252C2.68752 3.68748 2.27502 4.09248 2.27502 6.41748V12.575C2.27502 14.9 2.68752 15.305 5.04252 15.305H13.375C15.73 15.305 16.1425 14.9 16.1425 12.575V9.51498C16.1425 9.20748 16.3975 8.95248 16.705 8.95248C17.0125 8.95248 17.2675 9.20748 17.2675 9.51498V12.575C17.275 15.5375 16.3675 16.4375 13.3825 16.4375Z" fill="#3D3D3D"/>
<path d="M16.7125 5.74998H12.5875C12.28 5.74998 12.025 5.49498 12.025 5.18748C12.025 4.87998 12.28 4.62498 12.5875 4.62498H16.7125C17.02 4.62498 17.275 4.87998 17.275 5.18748C17.275 5.49498 17.02 5.74998 16.7125 5.74998Z" fill="#3D3D3D"/>
<path d="M14.65 7.81248C14.3425 7.81248 14.0875 7.55748 14.0875 7.24998V3.12498C14.0875 2.81748 14.3425 2.56248 14.65 2.56248C14.9575 2.56248 15.2125 2.81748 15.2125 3.12498V7.24998C15.2125 7.55748 14.9575 7.81248 14.65 7.81248Z" fill="#3D3D3D"/>
</svg>
