<svg width="20" height="20" viewBox="0 0 20 20" fill="none" xmlns="http://www.w3.org/2000/svg">
<path d="M17.5 18.9583H2.5C2.15833 18.9583 1.875 18.675 1.875 18.3333C1.875 17.9917 2.15833 17.7083 2.5 17.7083H17.5C17.8417 17.7083 18.125 17.9917 18.125 18.3333C18.125 18.675 17.8417 18.9583 17.5 18.9583Z" fill="#2252A0"/>
<path d="M4.66665 16.4583H3.33333C2.53333 16.4583 1.875 15.8 1.875 15V7.81667C1.875 7.01667 2.53333 6.35834 3.33333 6.35834H4.66665C5.46665 6.35834 6.12498 7.01667 6.12498 7.81667V15C6.12498 15.8 5.46665 16.4583 4.66665 16.4583ZM3.33333 7.6C3.21667 7.6 3.125 7.69166 3.125 7.80833V15C3.125 15.1167 3.21667 15.2083 3.33333 15.2083H4.66665C4.78331 15.2083 4.87498 15.1167 4.87498 15V7.81667C4.87498 7.7 4.78331 7.60834 4.66665 7.60834H3.33333V7.6Z" fill="#2252A0"/>
<path d="M10.6668 16.4583H9.33349C8.53349 16.4583 7.87515 15.8 7.87515 15V5.15835C7.87515 4.35835 8.53349 3.70001 9.33349 3.70001H10.6668C11.4668 3.70001 12.1251 4.35835 12.1251 5.15835V15C12.1251 15.8 11.4668 16.4583 10.6668 16.4583ZM9.33349 4.95001C9.21682 4.95001 9.12515 5.04168 9.12515 5.15835V15C9.12515 15.1167 9.21682 15.2083 9.33349 15.2083H10.6668C10.7835 15.2083 10.8751 15.1167 10.8751 15V5.15835C10.8751 5.04168 10.7835 4.95001 10.6668 4.95001H9.33349Z" fill="#2252A0"/>
<path d="M16.6666 16.4583H15.3332C14.5332 16.4583 13.8749 15.8 13.8749 15V2.49999C13.8749 1.69999 14.5332 1.04166 15.3332 1.04166H16.6666C17.4666 1.04166 18.1249 1.69999 18.1249 2.49999V15C18.1249 15.8 17.4666 16.4583 16.6666 16.4583ZM15.3332 2.29166C15.2166 2.29166 15.1249 2.38332 15.1249 2.49999V15C15.1249 15.1167 15.2166 15.2083 15.3332 15.2083H16.6666C16.7832 15.2083 16.8749 15.1167 16.8749 15V2.49999C16.8749 2.38332 16.7832 2.29166 16.6666 2.29166H15.3332Z" fill="#2252A0"/>
</svg>
