<svg width="25" height="25" viewBox="0 0 25 25" fill="none" xmlns="http://www.w3.org/2000/svg">
<path d="M12.5 23.25C8.5 23.25 5.25 20.38 5.25 16.85V13.15C5.25 12.74 5.59 12.4 6 12.4C6.41 12.4 6.75 12.74 6.75 13.15C6.75 15.77 9.22 17.75 12.5 17.75C15.78 17.75 18.25 15.77 18.25 13.15C18.25 12.74 18.59 12.4 19 12.4C19.41 12.4 19.75 12.74 19.75 13.15V16.85C19.75 20.38 16.5 23.25 12.5 23.25ZM6.75 16.96C6.82 19.61 9.37 21.75 12.5 21.75C15.63 21.75 18.18 19.61 18.25 16.96C16.95 18.37 14.89 19.25 12.5 19.25C10.11 19.25 8.06 18.37 6.75 16.96Z" fill="#AC1269"/>
<path d="M12.5 14.25C9.74 14.25 7.25999 13.01 6.04999 11.01C5.52999 10.16 5.25 9.17 5.25 8.15C5.25 6.43 6.02 4.81 7.41 3.59C8.77 2.4 10.58 1.75 12.5 1.75C14.42 1.75 16.22 2.4 17.59 3.58C18.98 4.81 19.75 6.43 19.75 8.15C19.75 9.17 19.47 10.15 18.95 11.01C17.74 13.01 15.26 14.25 12.5 14.25ZM12.5 3.25C10.94 3.25 9.48001 3.77 8.39001 4.73C7.33001 5.65 6.75 6.87 6.75 8.15C6.75 8.9 6.94999 9.6 7.32999 10.23C8.27999 11.79 10.26 12.75 12.5 12.75C14.74 12.75 16.72 11.78 17.67 10.23C18.06 9.6 18.25 8.9 18.25 8.15C18.25 6.87 17.67 5.65 16.6 4.71C15.51 3.77 14.06 3.25 12.5 3.25Z" fill="#AC1269"/>
<path d="M12.5 19.25C8.37 19.25 5.25 16.63 5.25 13.15V8.15C5.25 4.62 8.5 1.75 12.5 1.75C14.42 1.75 16.22 2.4 17.59 3.58C18.98 4.81 19.75 6.43 19.75 8.15V13.15C19.75 16.63 16.63 19.25 12.5 19.25ZM12.5 3.25C9.33 3.25 6.75 5.45 6.75 8.15V13.15C6.75 15.77 9.22 17.75 12.5 17.75C15.78 17.75 18.25 15.77 18.25 13.15V8.15C18.25 6.87 17.67 5.65 16.6 4.71C15.51 3.77 14.06 3.25 12.5 3.25Z" fill="#AC1269"/>
</svg>
