<svg width="16" height="16" viewBox="0 0 16 16" fill="none" xmlns="http://www.w3.org/2000/svg">
<path d="M7.4 15.1667H4.6C1.99333 15.1667 0.833332 14.0067 0.833332 11.4V8.6C0.833332 5.99334 1.99333 4.83334 4.6 4.83334H7.4C10.0067 4.83334 11.1667 5.99334 11.1667 8.6V11.4C11.1667 14.0067 10.0067 15.1667 7.4 15.1667ZM4.6 5.83334C2.53333 5.83334 1.83333 6.53334 1.83333 8.6V11.4C1.83333 13.4667 2.53333 14.1667 4.6 14.1667H7.4C9.46667 14.1667 10.1667 13.4667 10.1667 11.4V8.6C10.1667 6.53334 9.46667 5.83334 7.4 5.83334H4.6Z" fill="#2252A0"/>
<path d="M11.4 11.1667H10.6667C10.3933 11.1667 10.1667 10.94 10.1667 10.6667V8.6C10.1667 6.53334 9.46667 5.83334 7.4 5.83334H5.33333C5.06 5.83334 4.83333 5.60667 4.83333 5.33334V4.6C4.83333 1.99334 5.99333 0.833336 8.6 0.833336H11.4C14.0067 0.833336 15.1667 1.99334 15.1667 4.6V7.4C15.1667 10.0067 14.0067 11.1667 11.4 11.1667ZM11.1667 10.1667H11.4C13.4667 10.1667 14.1667 9.46667 14.1667 7.4V4.6C14.1667 2.53334 13.4667 1.83334 11.4 1.83334H8.6C6.53333 1.83334 5.83333 2.53334 5.83333 4.6V4.83334H7.4C10.0067 4.83334 11.1667 5.99334 11.1667 8.6V10.1667Z" fill="#2252A0"/>
</svg>
