<svg width="16" height="16" viewBox="0 0 16 16" fill="none" xmlns="http://www.w3.org/2000/svg">
<path d="M8 6.50007C7.93333 6.50007 7.87333 6.48674 7.80667 6.46007C7.62 6.38674 7.5 6.20007 7.5 6.00007V1.33341C7.5 1.06008 7.72667 0.833408 8 0.833408C8.27333 0.833408 8.5 1.06008 8.5 1.33341V4.79341L8.98 4.31341C9.17333 4.12007 9.49333 4.12007 9.68667 4.31341C9.88 4.50674 9.88 4.82674 9.68667 5.02007L8.35333 6.35341C8.26 6.44674 8.13333 6.50007 8 6.50007Z" fill="#C9659E"/>
<path d="M8 6.50008C7.87333 6.50008 7.74667 6.45341 7.64667 6.35341L6.31333 5.02008C6.12 4.82674 6.12 4.50674 6.31333 4.31341C6.50667 4.12008 6.82667 4.12008 7.02 4.31341L8.35333 5.64674C8.54667 5.84008 8.54667 6.16008 8.35333 6.35341C8.25333 6.45341 8.12667 6.50008 8 6.50008Z" fill="#C9659E"/>
<path d="M9.17334 11.8334H6.82001C6.12001 11.8334 5.49334 11.4467 5.18001 10.8201L4.40001 9.26007C4.37334 9.20007 4.31334 9.16674 4.25334 9.16674H1.32001C1.04667 9.16674 0.820007 8.94007 0.820007 8.66674C0.820007 8.39341 1.04667 8.16674 1.32001 8.16674H4.26001C4.70667 8.16674 5.10667 8.41341 5.30667 8.81341L6.08667 10.3734C6.22667 10.6601 6.51334 10.8334 6.83334 10.8334H9.18667C9.50667 10.8334 9.79334 10.6601 9.93334 10.3734L10.7133 8.81341C10.9133 8.41341 11.3133 8.16674 11.76 8.16674H14.6667C14.94 8.16674 15.1667 8.39341 15.1667 8.66674C15.1667 8.94007 14.94 9.16674 14.6667 9.16674H11.76C11.6933 9.16674 11.64 9.20007 11.6133 9.26007L10.8333 10.8201C10.5 11.4467 9.87334 11.8334 9.17334 11.8334Z" fill="#C9659E"/>
<path d="M9.99998 15.1667H5.99998C2.37998 15.1667 0.833313 13.6201 0.833313 10.0001V7.33341C0.833313 4.20675 1.99331 2.64008 4.59331 2.26008C4.87331 2.22008 5.11998 2.40675 5.15998 2.68008C5.19998 2.95341 5.01331 3.20675 4.73998 3.24675C2.64665 3.55341 1.83331 4.70008 1.83331 7.33341V10.0001C1.83331 13.0734 2.92665 14.1667 5.99998 14.1667H9.99998C13.0733 14.1667 14.1666 13.0734 14.1666 10.0001V7.33341C14.1666 4.70008 13.3533 3.55341 11.26 3.24675C10.9866 3.20675 10.8 2.95341 10.84 2.68008C10.88 2.40675 11.1333 2.22008 11.4066 2.26008C14.0066 2.64008 15.1666 4.20675 15.1666 7.33341V10.0001C15.1666 13.6201 13.62 15.1667 9.99998 15.1667Z" fill="#C9659E"/>
</svg>
