<svg width="16" height="16" viewBox="0 0 16 16" fill="none" xmlns="http://www.w3.org/2000/svg">
<path d="M7.2 14.7333C7.00667 14.7333 6.81333 14.7 6.63333 14.6333C5.8 14.36 5.26667 13.44 5.45333 12.5867L5.78 10.4867C5.78667 10.44 5.78667 10.3733 5.74 10.32C5.70667 10.2867 5.66 10.2667 5.60667 10.2667H2.94C2.28667 10.2667 1.72 9.99334 1.38667 9.52C1.06 9.06 0.993334 8.45334 1.20667 7.86667L2.8 3.01334C3.04667 2.04667 4.08 1.26667 5.14667 1.26667H7.68C8.05333 1.26667 8.86667 1.38 9.3 1.81334L11.32 3.37334L10.7067 4.16667L8.64 2.56667C8.47333 2.4 8.05333 2.26667 7.68 2.26667H5.14667C4.54667 2.26667 3.9 2.74667 3.76667 3.28667L2.15333 8.18667C2.04667 8.48 2.06667 8.74667 2.20667 8.94C2.35333 9.14667 2.62 9.26667 2.94667 9.26667H5.61333C5.96 9.26667 6.28 9.41334 6.5 9.66667C6.72667 9.92667 6.82667 10.2733 6.77333 10.6333L6.44 12.7733C6.36 13.1467 6.61333 13.5667 6.97333 13.6867C7.29333 13.8067 7.72 13.6333 7.86667 13.42L10.6 9.35334L11.4267 9.91334L8.69333 13.98C8.38 14.4467 7.78667 14.7333 7.2 14.7333Z" fill="#2252A0"/>
<path d="M13.08 12.0667H12.4133C11.18 12.0667 10.58 11.4867 10.58 10.3V3.76667C10.58 2.58 11.18 2 12.4133 2H13.08C14.3133 2 14.9133 2.58 14.9133 3.76667V10.3C14.9133 11.4867 14.3133 12.0667 13.08 12.0667ZM12.4133 3C11.6867 3 11.58 3.17333 11.58 3.76667V10.3C11.58 10.8933 11.6867 11.0667 12.4133 11.0667H13.08C13.8067 11.0667 13.9133 10.8933 13.9133 10.3V3.76667C13.9133 3.17333 13.8067 3 13.08 3H12.4133Z" fill="#2252A0"/>
</svg>
