<svg width="19" height="18" viewBox="0 0 19 18" fill="none" xmlns="http://www.w3.org/2000/svg">
<path d="M8.73921 17.0625H5.88921C2.59671 17.0625 1.12671 15.5925 1.12671 12.3V9.45C1.12671 6.1575 2.59671 4.6875 5.88921 4.6875H8.13921C8.44671 4.6875 8.70171 4.9425 8.70171 5.25C8.70171 5.5575 8.44671 5.8125 8.13921 5.8125H5.88921C3.20421 5.8125 2.25171 6.765 2.25171 9.45V12.3C2.25171 14.985 3.20421 15.9375 5.88921 15.9375H8.73921C11.4242 15.9375 12.3767 14.985 12.3767 12.3V10.05C12.3767 9.7425 12.6317 9.4875 12.9392 9.4875C13.2467 9.4875 13.5017 9.7425 13.5017 10.05V12.3C13.5017 15.5925 12.0317 17.0625 8.73921 17.0625Z" fill="white"/>
<path d="M12.9392 10.6125H10.5392C8.43166 10.6125 7.57666 9.75751 7.57666 7.65001V5.25001C7.57666 5.02501 7.71166 4.81501 7.92166 4.73251C8.13166 4.64251 8.37166 4.69501 8.53666 4.85251L13.3367 9.65251C13.4942 9.81001 13.5467 10.0575 13.4567 10.2675C13.3742 10.4775 13.1642 10.6125 12.9392 10.6125ZM8.70166 6.60751V7.65001C8.70166 9.14251 9.04666 9.48751 10.5392 9.48751H11.5817L8.70166 6.60751Z" fill="white"/>
<path d="M11.8892 2.0625H8.88916C8.58166 2.0625 8.32666 1.8075 8.32666 1.5C8.32666 1.1925 8.58166 0.9375 8.88916 0.9375H11.8892C12.1967 0.9375 12.4517 1.1925 12.4517 1.5C12.4517 1.8075 12.1967 2.0625 11.8892 2.0625Z" fill="white"/>
<path d="M5.43921 4.3125C5.13171 4.3125 4.87671 4.0575 4.87671 3.75C4.87671 2.1975 6.13671 0.9375 7.68921 0.9375H9.65421C9.96171 0.9375 10.2167 1.1925 10.2167 1.5C10.2167 1.8075 9.96171 2.0625 9.65421 2.0625H7.68921C6.75921 2.0625 6.00171 2.82 6.00171 3.75C6.00171 4.0575 5.74671 4.3125 5.43921 4.3125Z" fill="white"/>
<path d="M14.5817 13.3125C14.2742 13.3125 14.0192 13.0575 14.0192 12.75C14.0192 12.4425 14.2742 12.1875 14.5817 12.1875C15.4367 12.1875 16.1267 11.49 16.1267 10.6425V6C16.1267 5.6925 16.3817 5.4375 16.6892 5.4375C16.9967 5.4375 17.2517 5.6925 17.2517 6V10.6425C17.2517 12.1125 16.0517 13.3125 14.5817 13.3125Z" fill="white"/>
<path d="M16.6892 6.56251H14.4392C12.4442 6.56251 11.6267 5.74501 11.6267 3.75001V1.50001C11.6267 1.27501 11.7617 1.06501 11.9717 0.982507C12.1817 0.892507 12.4217 0.945007 12.5867 1.10251L17.0867 5.60251C17.2442 5.76001 17.2967 6.00751 17.2067 6.21751C17.1242 6.42751 16.9142 6.56251 16.6892 6.56251ZM12.7517 2.85751V3.75001C12.7517 5.12251 13.0667 5.43751 14.4392 5.43751H15.3317L12.7517 2.85751Z" fill="white"/>
</svg>
