<svg width="16" height="17" viewBox="0 0 16 17" fill="none" xmlns="http://www.w3.org/2000/svg">
<path d="M3.69332 13.5133C3.28666 13.5133 2.90666 13.3733 2.63332 13.1133C2.28666 12.7867 2.11999 12.2933 2.17999 11.76L2.42666 9.6C2.47332 9.19333 2.71999 8.65333 3.00666 8.36L8.47999 2.56667C9.84666 1.12 11.2733 1.08 12.72 2.44667C14.1667 3.81333 14.2067 5.24 12.84 6.68667L7.36666 12.48C7.08666 12.78 6.56666 13.06 6.15999 13.1267L4.01332 13.4933C3.89999 13.5 3.79999 13.5133 3.69332 13.5133ZM10.62 2.44C10.1067 2.44 9.65999 2.76 9.20666 3.24L3.73332 9.04C3.59999 9.18 3.44666 9.51333 3.41999 9.70667L3.17332 11.8667C3.14666 12.0867 3.19999 12.2667 3.31999 12.38C3.43999 12.4933 3.61999 12.5333 3.83999 12.5L5.98666 12.1333C6.17999 12.1 6.49999 11.9267 6.63332 11.7867L12.1067 5.99333C12.9333 5.11333 13.2333 4.3 12.0267 3.16667C11.4933 2.65333 11.0333 2.44 10.62 2.44Z" fill="#C9659E"/>
<path d="M11.56 7.8C11.5467 7.8 11.5267 7.8 11.5134 7.8C9.43336 7.59333 7.76003 6.01333 7.44003 3.94667C7.40003 3.67333 7.58669 3.42 7.86003 3.37333C8.13336 3.33333 8.38669 3.52 8.43336 3.79333C8.68669 5.40667 9.99336 6.64667 11.62 6.80667C11.8934 6.83333 12.0934 7.08 12.0667 7.35333C12.0334 7.60667 11.8134 7.8 11.56 7.8Z" fill="#C9659E"/>
</svg>
