<svg width="16" height="16" viewBox="0 0 16 16" fill="none" xmlns="http://www.w3.org/2000/svg">
<path d="M3.69332 13.0133C3.28666 13.0133 2.90666 12.8733 2.63332 12.6133C2.28666 12.2867 2.11999 11.7933 2.17999 11.26L2.42666 9.1C2.47332 8.69333 2.71999 8.15333 3.00666 7.86L8.47999 2.06667C9.84666 0.62 11.2733 0.58 12.72 1.94667C14.1667 3.31333 14.2067 4.74 12.84 6.18667L7.36666 11.98C7.08666 12.28 6.56666 12.56 6.15999 12.6267L4.01332 12.9933C3.89999 13 3.79999 13.0133 3.69332 13.0133ZM10.62 1.94C10.1067 1.94 9.65999 2.26 9.20666 2.74L3.73332 8.54C3.59999 8.68 3.44666 9.01333 3.41999 9.20667L3.17332 11.3667C3.14666 11.5867 3.19999 11.7667 3.31999 11.88C3.43999 11.9933 3.61999 12.0333 3.83999 12L5.98666 11.6333C6.17999 11.6 6.49999 11.4267 6.63332 11.2867L12.1067 5.49333C12.9333 4.61333 13.2333 3.8 12.0267 2.66667C11.4933 2.15333 11.0333 1.94 10.62 1.94Z" fill="#C9659E"/>
<path d="M11.56 7.3C11.5467 7.3 11.5267 7.3 11.5134 7.3C9.43336 7.09333 7.76003 5.51333 7.44003 3.44667C7.40003 3.17333 7.58669 2.92 7.86003 2.87333C8.13336 2.83333 8.38669 3.02 8.43336 3.29333C8.68669 4.90667 9.99336 6.14667 11.62 6.30667C11.8934 6.33333 12.0934 6.58 12.0667 6.85333C12.0334 7.10667 11.8134 7.3 11.56 7.3Z" fill="#C9659E"/>
</svg>
