<svg width="19" height="19" viewBox="0 0 19 19" fill="none" xmlns="http://www.w3.org/2000/svg">
<path d="M14.8806 8.93755H11.8506C10.3431 8.93755 9.61563 8.20255 9.61563 6.70255V3.67255C9.61563 2.16505 10.3506 1.43755 11.8506 1.43755H14.8806C16.3881 1.43755 17.1156 2.17255 17.1156 3.67255V6.70255C17.1156 8.20255 16.3806 8.93755 14.8806 8.93755ZM11.8506 2.56255C10.9656 2.56255 10.7406 2.78755 10.7406 3.67255V6.70255C10.7406 7.58755 10.9656 7.81255 11.8506 7.81255H14.8806C15.7656 7.81255 15.9906 7.58755 15.9906 6.70255V3.67255C15.9906 2.78755 15.7656 2.56255 14.8806 2.56255H11.8506Z" fill="#3D3D3D"/>
<path d="M6.25563 8.93755H3.22563C1.71813 8.93755 0.990631 8.27005 0.990631 6.89005V3.48505C0.990631 2.10505 1.72563 1.43755 3.22563 1.43755H6.25563C7.76313 1.43755 8.49063 2.10505 8.49063 3.48505V6.88255C8.49063 8.27005 7.75563 8.93755 6.25563 8.93755ZM3.22563 2.56255C2.22063 2.56255 2.11563 2.84755 2.11563 3.48505V6.88255C2.11563 7.52755 2.22063 7.80505 3.22563 7.80505H6.25563C7.26063 7.80505 7.36563 7.52005 7.36563 6.88255V3.48505C7.36563 2.84005 7.26063 2.56255 6.25563 2.56255H3.22563Z" fill="#3D3D3D"/>
<path d="M6.25563 17.5625H3.22563C1.71813 17.5625 0.990631 16.8275 0.990631 15.3275V12.2975C0.990631 10.79 1.72563 10.0625 3.22563 10.0625H6.25563C7.76313 10.0625 8.49063 10.7975 8.49063 12.2975V15.3275C8.49063 16.8275 7.75563 17.5625 6.25563 17.5625ZM3.22563 11.1875C2.34063 11.1875 2.11563 11.4125 2.11563 12.2975V15.3275C2.11563 16.2125 2.34063 16.4375 3.22563 16.4375H6.25563C7.14063 16.4375 7.36563 16.2125 7.36563 15.3275V12.2975C7.36563 11.4125 7.14063 11.1875 6.25563 11.1875H3.22563Z" fill="#3D3D3D"/>
<path d="M15.4281 14.1875H10.9281C10.6206 14.1875 10.3656 13.9325 10.3656 13.625C10.3656 13.3175 10.6206 13.0625 10.9281 13.0625H15.4281C15.7356 13.0625 15.9906 13.3175 15.9906 13.625C15.9906 13.9325 15.7356 14.1875 15.4281 14.1875Z" fill="#3D3D3D"/>
<path d="M13.1781 16.4375C12.8706 16.4375 12.6156 16.1825 12.6156 15.875V11.375C12.6156 11.0675 12.8706 10.8125 13.1781 10.8125C13.4856 10.8125 13.7406 11.0675 13.7406 11.375V15.875C13.7406 16.1825 13.4856 16.4375 13.1781 16.4375Z" fill="#3D3D3D"/>
</svg>
