<svg width="18" height="18" viewBox="0 0 18 18" fill="none" xmlns="http://www.w3.org/2000/svg">
<path d="M11.25 17.0625H6.75C2.6775 17.0625 0.9375 15.3225 0.9375 11.25V6.75C0.9375 2.6775 2.6775 0.9375 6.75 0.9375H11.25C15.3225 0.9375 17.0625 2.6775 17.0625 6.75V11.25C17.0625 15.3225 15.3225 17.0625 11.25 17.0625ZM6.75 2.0625C3.2925 2.0625 2.0625 3.2925 2.0625 6.75V11.25C2.0625 14.7075 3.2925 15.9375 6.75 15.9375H11.25C14.7075 15.9375 15.9375 14.7075 15.9375 11.25V6.75C15.9375 3.2925 14.7075 2.0625 11.25 2.0625H6.75Z" fill="#C9659E"/>
<path d="M11.625 7.875C10.695 7.875 9.9375 7.1175 9.9375 6.1875C9.9375 5.2575 10.695 4.5 11.625 4.5C12.555 4.5 13.3125 5.2575 13.3125 6.1875C13.3125 7.1175 12.555 7.875 11.625 7.875ZM11.625 5.625C11.3175 5.625 11.0625 5.88 11.0625 6.1875C11.0625 6.495 11.3175 6.75 11.625 6.75C11.9325 6.75 12.1875 6.495 12.1875 6.1875C12.1875 5.88 11.9325 5.625 11.625 5.625Z" fill="#C9659E"/>
<path d="M6.375 7.875C5.445 7.875 4.6875 7.1175 4.6875 6.1875C4.6875 5.2575 5.445 4.5 6.375 4.5C7.305 4.5 8.0625 5.2575 8.0625 6.1875C8.0625 7.1175 7.305 7.875 6.375 7.875ZM6.375 5.625C6.0675 5.625 5.8125 5.88 5.8125 6.1875C5.8125 6.495 6.0675 6.75 6.375 6.75C6.6825 6.75 6.9375 6.495 6.9375 6.1875C6.9375 5.88 6.6825 5.625 6.375 5.625Z" fill="#C9659E"/>
<path d="M9 14.5875C6.825 14.5875 5.0625 12.8175 5.0625 10.65C5.0625 9.9675 5.6175 9.4125 6.3 9.4125H11.7C12.3825 9.4125 12.9375 9.9675 12.9375 10.65C12.9375 12.8175 11.175 14.5875 9 14.5875ZM6.3 10.5375C6.24 10.5375 6.1875 10.59 6.1875 10.65C6.1875 12.2025 7.4475 13.4625 9 13.4625C10.5525 13.4625 11.8125 12.2025 11.8125 10.65C11.8125 10.59 11.76 10.5375 11.7 10.5375H6.3Z" fill="#C9659E"/>
</svg>
