<svg width="16" height="17" viewBox="0 0 16 17" fill="none" xmlns="http://www.w3.org/2000/svg">
<path d="M14 15.6667H6C5.72667 15.6667 5.5 15.44 5.5 15.1667C5.5 14.8933 5.72667 14.6667 6 14.6667H14C14.2733 14.6667 14.5 14.8933 14.5 15.1667C14.5 15.44 14.2733 15.6667 14 15.6667Z" fill="#C9659E"/>
<path d="M5.6934 15.64C5.02673 15.64 4.39342 15.38 3.92676 14.9067L1.58675 12.5667C0.613417 11.5933 0.613417 10.0067 1.58675 9.03333L8.54008 2.08C9.48008 1.14 11.1334 1.14 12.0734 2.08L14.4134 4.42C15.3867 5.39333 15.3867 6.98 14.4134 7.95333L7.46008 14.9067C6.99342 15.3867 6.36673 15.64 5.6934 15.64ZM2.29342 11.8667L4.63342 14.2067C5.20009 14.7733 6.19342 14.7733 6.75342 14.2067L13.7067 7.25333C14.2934 6.66666 14.2934 5.72 13.7067 5.13333L11.3667 2.79333C10.8067 2.23333 9.81341 2.22667 9.24674 2.79333L2.29342 9.74667C1.70675 10.3267 1.70675 11.28 2.29342 11.8667Z" fill="#C9659E"/>
<path d="M9.9137 12.2534C9.78703 12.2534 9.66039 12.2067 9.56039 12.1067L4.39372 6.94005C4.20038 6.74672 4.20038 6.42671 4.39372 6.23338C4.58705 6.04005 4.90705 6.04005 5.10038 6.23338L10.267 11.4C10.4604 11.5934 10.4604 11.9134 10.267 12.1067C10.167 12.2067 10.0404 12.2534 9.9137 12.2534Z" fill="#C9659E"/>
<path d="M2.34668 12.7733C2.22001 12.7733 2.09333 12.7266 1.99333 12.6266C1.79999 12.4333 1.79999 12.1133 1.99333 11.92L5.76668 8.14663C5.96002 7.9533 6.28002 7.9533 6.47335 8.14663C6.66668 8.33996 6.66668 8.65996 6.47335 8.85329L2.69999 12.6266C2.59999 12.7266 2.47335 12.7733 2.34668 12.7733Z" fill="#C9659E"/>
<path d="M4.2262 14.66C4.09953 14.66 3.97284 14.6133 3.87284 14.5133C3.67951 14.32 3.67951 14 3.87284 13.8067L7.64616 10.0333C7.83949 9.84001 8.15953 9.84001 8.35287 10.0333C8.5462 10.2267 8.5462 10.5467 8.35287 10.74L4.57951 14.5133C4.48618 14.6067 4.35953 14.66 4.2262 14.66Z" fill="#C9659E"/>
</svg>
