<svg width="19" height="19" viewBox="0 0 19 19" fill="none" xmlns="http://www.w3.org/2000/svg">
<path d="M6.90942 8.56248C5.76942 8.56248 4.84692 7.63998 4.84692 6.49998C4.84692 5.35998 5.76942 4.43748 6.90942 4.43748C8.04942 4.43748 8.97192 5.35998 8.97192 6.49998C8.97192 7.63998 8.04942 8.56248 6.90942 8.56248ZM6.90942 5.56248C6.39192 5.56248 5.97192 5.98248 5.97192 6.49998C5.97192 7.01748 6.39192 7.43748 6.90942 7.43748C7.42692 7.43748 7.84692 7.01748 7.84692 6.49998C7.84692 5.98248 7.42692 5.56248 6.90942 5.56248Z" fill="#3D3D3D"/>
<path d="M11.4094 17.5625H6.90942C2.83692 17.5625 1.09692 15.8225 1.09692 11.75V7.24998C1.09692 3.17748 2.83692 1.43748 6.90942 1.43748H9.90942C10.2169 1.43748 10.4719 1.69248 10.4719 1.99998C10.4719 2.30748 10.2169 2.56248 9.90942 2.56248H6.90942C3.45192 2.56248 2.22192 3.79248 2.22192 7.24998V11.75C2.22192 15.2075 3.45192 16.4375 6.90942 16.4375H11.4094C14.8669 16.4375 16.0969 15.2075 16.0969 11.75V7.99998C16.0969 7.69248 16.3519 7.43748 16.6594 7.43748C16.9669 7.43748 17.2219 7.69248 17.2219 7.99998V11.75C17.2219 15.8225 15.4819 17.5625 11.4094 17.5625Z" fill="#3D3D3D"/>
<path d="M16.0969 4.81248H11.9719C11.6644 4.81248 11.4094 4.55748 11.4094 4.24998C11.4094 3.94248 11.6644 3.68748 11.9719 3.68748H16.0969C16.4044 3.68748 16.6594 3.94248 16.6594 4.24998C16.6594 4.55748 16.4044 4.81248 16.0969 4.81248Z" fill="#3D3D3D"/>
<path d="M14.0344 6.87498C13.7269 6.87498 13.4719 6.61998 13.4719 6.31248V2.18748C13.4719 1.87998 13.7269 1.62498 14.0344 1.62498C14.3419 1.62498 14.5969 1.87998 14.5969 2.18748V6.31248C14.5969 6.61998 14.3419 6.87498 14.0344 6.87498Z" fill="#3D3D3D"/>
<path d="M2.1619 15.275C1.9819 15.275 1.8019 15.185 1.6969 15.0275C1.5244 14.7725 1.5919 14.42 1.8469 14.2475L5.5444 11.765C6.3544 11.225 7.4719 11.285 8.2069 11.9075L8.4544 12.125C8.8294 12.4475 9.4669 12.4475 9.8344 12.125L12.9544 9.44748C13.7569 8.76498 15.0019 8.76498 15.8044 9.44748L17.0269 10.4975C17.2594 10.7 17.2894 11.0525 17.0869 11.2925C16.8844 11.525 16.5319 11.555 16.2919 11.3525L15.0694 10.3025C14.6944 9.97997 14.0569 9.97997 13.6894 10.3025L10.5694 12.98C9.7744 13.6625 8.5219 13.6625 7.7194 12.98L7.4719 12.7625C7.1269 12.47 6.5569 12.44 6.1744 12.7025L2.4844 15.185C2.3794 15.245 2.2669 15.275 2.1619 15.275Z" fill="#3D3D3D"/>
</svg>
