<svg width="16" height="16" viewBox="0 0 16 16" fill="none" xmlns="http://www.w3.org/2000/svg">
<path d="M10.8533 14.7333H8.32C7.94667 14.7333 7.13333 14.62 6.7 14.1867L4.68 12.6267L5.29333 11.8333L7.36 13.4333C7.52667 13.5933 7.94667 13.7267 8.32 13.7267H10.8533C11.4533 13.7267 12.1 13.2467 12.2333 12.7067L13.8467 7.80666C13.9533 7.51333 13.9333 7.24667 13.7933 7.05333C13.6467 6.84666 13.38 6.72667 13.0533 6.72667H10.3867C10.04 6.72667 9.72 6.58 9.5 6.32666C9.27333 6.06666 9.17333 5.72 9.22667 5.36L9.56 3.22C9.64 2.84666 9.38667 2.42667 9.02667 2.30667C8.7 2.18667 8.28 2.36 8.13333 2.57333L5.4 6.64L4.57333 6.08666L7.30667 2.02C7.72667 1.39333 8.64667 1.09333 9.36667 1.36667C10.2 1.64 10.7333 2.56 10.5467 3.41333L10.22 5.51333C10.2133 5.56 10.2133 5.62667 10.26 5.68C10.2933 5.71333 10.34 5.73333 10.3933 5.73333H13.06C13.7133 5.73333 14.28 6.00666 14.6133 6.48C14.94 6.94 15.0067 7.54666 14.7933 8.13333L13.2 12.9867C12.9533 13.9533 11.9267 14.7333 10.8533 14.7333Z" fill="#2252A0"/>
<path d="M3.58667 14H2.92C1.68667 14 1.08667 13.42 1.08667 12.2333V5.7C1.08667 4.51333 1.68667 3.93333 2.92 3.93333H3.58667C4.82 3.93333 5.42 4.51333 5.42 5.7V12.2333C5.42 13.42 4.82 14 3.58667 14ZM2.92 4.93333C2.19333 4.93333 2.08667 5.10667 2.08667 5.7V12.2333C2.08667 12.8267 2.19333 13 2.92 13H3.58667C4.31333 13 4.42 12.8267 4.42 12.2333V5.7C4.42 5.10667 4.31333 4.93333 3.58667 4.93333H2.92Z" fill="#2252A0"/>
</svg>
