<svg width="21" height="21" viewBox="0 0 21 21" fill="none" xmlns="http://www.w3.org/2000/svg">
<path d="M13.0114 19.0583H12.9031C9.2031 19.0583 7.41977 17.6 7.11143 14.3333C7.0781 13.9917 7.3281 13.6833 7.6781 13.65C8.01977 13.6166 8.3281 13.875 8.36143 14.2167C8.6031 16.8333 9.83643 17.8083 12.9114 17.8083H13.0198C16.4114 17.8083 17.6114 16.6083 17.6114 13.2167V7.78332C17.6114 4.39165 16.4114 3.19165 13.0198 3.19165H12.9114C9.81977 3.19165 8.58643 4.18332 8.36143 6.84998C8.31977 7.19165 8.03643 7.44998 7.6781 7.41665C7.3281 7.39165 7.0781 7.08332 7.1031 6.74165C7.38643 3.42498 9.1781 1.94165 12.9031 1.94165H13.0114C17.1031 1.94165 18.8531 3.69165 18.8531 7.78332V13.2167C18.8531 17.3083 17.1031 19.0583 13.0114 19.0583Z" fill="#BE123C"/>
<path d="M12.7114 11.125H1.97809C1.63642 11.125 1.35309 10.8417 1.35309 10.5C1.35309 10.1583 1.63642 9.875 1.97809 9.875H12.7114C13.0531 9.875 13.3364 10.1583 13.3364 10.5C13.3364 10.8417 13.0614 11.125 12.7114 11.125Z" fill="#BE123C"/>
<path d="M10.8531 13.9166C10.6948 13.9166 10.5364 13.8583 10.4114 13.7333C10.1698 13.4916 10.1698 13.0916 10.4114 12.85L12.7614 10.5L10.4114 8.14997C10.1698 7.90831 10.1698 7.5083 10.4114 7.26664C10.6531 7.02497 11.0531 7.02497 11.2948 7.26664L14.0864 10.0583C14.3281 10.3 14.3281 10.7 14.0864 10.9416L11.2948 13.7333C11.1698 13.8583 11.0114 13.9166 10.8531 13.9166Z" fill="#BE123C"/>
</svg>
