<svg width="16" height="16" viewBox="0 0 16 16" fill="none" xmlns="http://www.w3.org/2000/svg">
<path d="M3.33333 14.58C2.84 14.58 2.35333 14.3933 1.98 14.02C1.62 13.66 1.42 13.18 1.42 12.6667C1.42 12.1533 1.62 11.6733 1.98 11.3133L10.6467 2.64667C11.3933 1.9 12.6067 1.9 13.3533 2.64667C13.7133 3.00667 13.9133 3.48667 13.9133 4C13.9133 4.51334 13.7133 4.99334 13.3533 5.35334L4.68667 14.02C4.31333 14.3933 3.82666 14.58 3.33333 14.58ZM12 3.08667C11.7667 3.08667 11.5333 3.17334 11.3533 3.35334L2.68666 12.02C2.51333 12.1933 2.42 12.42 2.42 12.6667C2.42 12.9133 2.51333 13.14 2.68666 13.3133C3.04 13.6667 3.62666 13.6667 3.98 13.3133L12.6467 4.64667C12.82 4.47334 12.9133 4.24667 12.9133 4C12.9133 3.75334 12.82 3.52667 12.6467 3.35334C12.4667 3.17334 12.2333 3.08667 12 3.08667Z" fill="#2252A0"/>
<path d="M12.0067 6.49334C11.88 6.49334 11.7533 6.44667 11.6533 6.34667L9.65333 4.34667C9.46 4.15334 9.46 3.83334 9.65333 3.64C9.84666 3.44667 10.1667 3.44667 10.36 3.64L12.36 5.64C12.5533 5.83334 12.5533 6.15334 12.36 6.34667C12.26 6.44667 12.1333 6.49334 12.0067 6.49334Z" fill="#2252A0"/>
<path d="M6.66667 3.66667C6.63334 3.66667 6.60667 3.66 6.57334 3.65333L5.66667 3.38667L4.76 3.65333C4.64 3.68667 4.51334 3.65333 4.43334 3.56667C4.34667 3.48 4.31334 3.36 4.34667 3.24L4.61334 2.33333L4.34667 1.42667C4.31334 1.30667 4.34667 1.18 4.43334 1.1C4.52 1.01333 4.64667 0.980001 4.76 1.01333L5.66667 1.28L6.57334 1.01333C6.69334 0.980001 6.81334 1.01333 6.9 1.1C6.98667 1.18667 7.02 1.31333 6.98667 1.42667L6.72 2.33333L6.98667 3.24C7.02 3.36 6.98667 3.48667 6.9 3.56667C6.84 3.63333 6.75334 3.66667 6.66667 3.66667ZM5.66667 2.70667C5.7 2.70667 5.72667 2.71333 5.76 2.72L6.17334 2.84L6.05334 2.42667C6.03334 2.36667 6.03334 2.3 6.05334 2.24L6.17334 1.82667L5.76 1.94667C5.7 1.96667 5.63334 1.96667 5.57334 1.94667L5.16 1.82667L5.28 2.24C5.3 2.3 5.3 2.36667 5.28 2.42667L5.16 2.84L5.57334 2.72C5.60667 2.71333 5.63334 2.70667 5.66667 2.70667Z" fill="#2252A0"/>
<path d="M4 7.66667C3.96667 7.66667 3.94 7.66 3.90667 7.65333L3 7.38667L2.09333 7.65333C1.97333 7.68667 1.85333 7.65333 1.76667 7.56667C1.68 7.48 1.64667 7.35333 1.68 7.24L1.94667 6.33333L1.68 5.42667C1.64667 5.30667 1.68 5.18 1.76667 5.1C1.85333 5.02 1.98 4.98 2.09333 5.01333L3 5.28L3.90667 5.01333C4.02 4.98 4.14667 5.01333 4.23333 5.1C4.32 5.18667 4.35333 5.31333 4.32 5.42667L4.05333 6.33333L4.32 7.24C4.35333 7.36 4.32 7.48667 4.23333 7.56667C4.17333 7.63333 4.08667 7.66667 4 7.66667ZM3 6.70667C3.03333 6.70667 3.06 6.71333 3.09333 6.72L3.50667 6.84L3.38667 6.42667C3.36667 6.36667 3.36667 6.3 3.38667 6.24L3.50667 5.82667L3.09333 5.94667C3.03333 5.96667 2.96667 5.96667 2.90667 5.94667L2.49333 5.82667L2.61333 6.24C2.63333 6.3 2.63333 6.36667 2.61333 6.42667L2.49333 6.84L2.90667 6.72C2.94 6.71333 2.96667 6.70667 3 6.70667Z" fill="#2252A0"/>
<path d="M14 11C13.9667 11 13.94 10.9933 13.9067 10.9867L13 10.72L12.0933 10.9867C11.9733 11.02 11.8533 10.9867 11.7667 10.9C11.68 10.8133 11.6467 10.6867 11.68 10.5733L11.9467 9.66667L11.68 8.76C11.6467 8.64 11.68 8.51334 11.7667 8.43334C11.8533 8.35334 11.98 8.31334 12.0933 8.34667L13 8.61334L13.9067 8.34667C14.02 8.31334 14.1467 8.34667 14.2333 8.43334C14.32 8.52 14.3533 8.64667 14.32 8.76L14.0533 9.66667L14.32 10.5733C14.3533 10.6933 14.32 10.82 14.2333 10.9C14.1733 10.9667 14.0867 11 14 11ZM13 10.04C13.0333 10.04 13.06 10.0467 13.0933 10.0533L13.5067 10.1733L13.3867 9.76C13.3667 9.7 13.3667 9.63334 13.3867 9.57334L13.5067 9.16L13.0933 9.28C13.0333 9.3 12.9667 9.3 12.9067 9.28L12.4933 9.16L12.6133 9.57334C12.6333 9.63334 12.6333 9.7 12.6133 9.76L12.4933 10.1733L12.9067 10.0533C12.94 10.0467 12.9667 10.04 13 10.04Z" fill="#2252A0"/>
</svg>
