<svg width="16" height="16" viewBox="0 0 16 16" fill="none" xmlns="http://www.w3.org/2000/svg">
<path d="M5.33333 14.8799C5.14666 14.8799 4.95332 14.8333 4.77998 14.7399C4.39998 14.54 4.16666 14.1399 4.16666 13.7133V12.7666C2.15333 12.56 0.833328 11.0799 0.833328 8.95992V4.95996C0.833328 2.66663 2.37333 1.12663 4.66666 1.12663H11.3333C13.6267 1.12663 15.1667 2.66663 15.1667 4.95996V8.95992C15.1667 11.2533 13.6267 12.7933 11.3333 12.7933H8.81998L5.97998 14.6866C5.78664 14.8133 5.56 14.8799 5.33333 14.8799ZM4.66666 2.11995C2.94666 2.11995 1.83333 3.23329 1.83333 4.95329V8.95333C1.83333 10.6733 2.94666 11.7867 4.66666 11.7867C4.93999 11.7867 5.16666 12.0133 5.16666 12.2867V13.7067C5.16666 13.7933 5.22 13.8333 5.25333 13.8533C5.28666 13.8733 5.35334 13.8933 5.42667 13.8466L8.39335 11.8733C8.47335 11.82 8.57334 11.7867 8.67334 11.7867H11.34C13.06 11.7867 14.1733 10.6733 14.1733 8.95333V4.95329C14.1733 3.23329 13.06 2.11995 11.34 2.11995H4.66666Z" fill="#2252A0"/>
<path d="M7.99988 8.07332C7.72655 8.07332 7.49988 7.84666 7.49988 7.57332V7.43335C7.49988 6.66002 8.06654 6.28001 8.27987 6.13334C8.52654 5.96667 8.60653 5.85335 8.60653 5.68001C8.60653 5.34668 8.33322 5.07332 7.99988 5.07332C7.66655 5.07332 7.39323 5.34668 7.39323 5.68001C7.39323 5.95335 7.16657 6.18001 6.89323 6.18001C6.6199 6.18001 6.39323 5.95335 6.39323 5.68001C6.39323 4.79335 7.11322 4.07332 7.99988 4.07332C8.88655 4.07332 9.60653 4.79335 9.60653 5.68001C9.60653 6.44001 9.04656 6.82 8.83989 6.96C8.57989 7.13333 8.49988 7.24668 8.49988 7.43335V7.57332C8.49988 7.85332 8.27322 8.07332 7.99988 8.07332Z" fill="#2252A0"/>
<path d="M8 9.73332C7.72 9.73332 7.5 9.50665 7.5 9.23332C7.5 8.95998 7.72667 8.73332 8 8.73332C8.27333 8.73332 8.5 8.95998 8.5 9.23332C8.5 9.50665 8.28 9.73332 8 9.73332Z" fill="#2252A0"/>
</svg>
