<svg width="19" height="19" viewBox="0 0 19 19" fill="none" xmlns="http://www.w3.org/2000/svg">
<path d="M9.52393 12.6875C7.55893 12.6875 5.96143 11.09 5.96143 9.125V5C5.96143 3.035 7.55893 1.4375 9.52393 1.4375C11.4889 1.4375 13.0864 3.035 13.0864 5V9.125C13.0864 11.09 11.4889 12.6875 9.52393 12.6875ZM9.52393 2.5625C8.18143 2.5625 7.08643 3.6575 7.08643 5V9.125C7.08643 10.4675 8.18143 11.5625 9.52393 11.5625C10.8664 11.5625 11.9614 10.4675 11.9614 9.125V5C11.9614 3.6575 10.8664 2.5625 9.52393 2.5625Z" fill="#3D3D3D"/>
<path d="M9.52394 15.3125C6.05144 15.3125 3.22394 12.485 3.22394 9.0125V7.7375C3.22394 7.43 3.47894 7.175 3.78644 7.175C4.09394 7.175 4.34894 7.43 4.34894 7.7375V9.0125C4.34894 11.8625 6.67394 14.1875 9.52394 14.1875C12.3739 14.1875 14.6989 11.8625 14.6989 9.0125V7.7375C14.6989 7.43 14.9539 7.175 15.2614 7.175C15.5689 7.175 15.8239 7.43 15.8239 7.7375V9.0125C15.8239 12.485 12.9964 15.3125 9.52394 15.3125Z" fill="#3D3D3D"/>
<path d="M10.5665 5.885C10.5065 5.885 10.439 5.8775 10.3715 5.855C9.82396 5.6525 9.22396 5.6525 8.67646 5.855C8.38396 5.96 8.06146 5.81 7.95646 5.5175C7.85146 5.225 8.00146 4.9025 8.29396 4.7975C9.08896 4.5125 9.96646 4.5125 10.7615 4.7975C11.054 4.9025 11.204 5.225 11.099 5.5175C11.009 5.7425 10.7915 5.885 10.5665 5.885Z" fill="#3D3D3D"/>
<path d="M10.1239 7.475C10.0714 7.475 10.0264 7.4675 9.97392 7.4525C9.67392 7.37 9.36642 7.37 9.06642 7.4525C8.76642 7.535 8.45892 7.355 8.37642 7.055C8.29392 6.7625 8.47392 6.455 8.77392 6.3725C9.26142 6.2375 9.78642 6.2375 10.2739 6.3725C10.5739 6.455 10.7539 6.7625 10.6714 7.0625C10.6039 7.31 10.3714 7.475 10.1239 7.475Z" fill="#3D3D3D"/>
<path d="M9.52393 17.5625C9.21643 17.5625 8.96143 17.3075 8.96143 17V14.75C8.96143 14.4425 9.21643 14.1875 9.52393 14.1875C9.83143 14.1875 10.0864 14.4425 10.0864 14.75V17C10.0864 17.3075 9.83143 17.5625 9.52393 17.5625Z" fill="#3D3D3D"/>
</svg>
