<svg width="18" height="18" viewBox="0 0 18 18" fill="none" xmlns="http://www.w3.org/2000/svg">
<path d="M9.34502 17.0625C9.21752 17.0625 9.09002 17.0625 8.96252 17.055C4.76252 16.8675 1.25252 13.485 0.960022 9.36002C0.705022 5.82002 2.75252 2.51252 6.05252 1.12502C6.99002 0.735025 7.48502 1.03502 7.69502 1.25252C7.90502 1.46252 8.19752 1.95002 7.80752 2.84252C7.46252 3.63752 7.29002 4.48502 7.29752 5.35502C7.31252 8.67752 10.0725 11.4975 13.44 11.6325C13.9275 11.655 14.4075 11.6175 14.8725 11.535C15.8625 11.355 16.275 11.7525 16.4325 12.0075C16.59 12.2625 16.77 12.81 16.17 13.62C14.58 15.795 12.0525 17.0625 9.34502 17.0625ZM2.07752 9.27752C2.33252 12.8475 5.37752 15.7725 9.00752 15.93C11.475 16.05 13.815 14.925 15.255 12.96C15.3675 12.8025 15.42 12.69 15.4425 12.63C15.375 12.6225 15.255 12.615 15.0675 12.6525C14.52 12.75 13.95 12.7875 13.3875 12.765C9.42752 12.6075 6.18752 9.28502 6.16502 5.37002C6.16502 4.33502 6.36752 3.33752 6.78002 2.40002C6.85502 2.23502 6.87002 2.12252 6.87752 2.06252C6.81002 2.06252 6.69002 2.07752 6.49502 2.16002C3.63752 3.36002 1.86752 6.22502 2.07752 9.27752Z" fill="white"/>
</svg>
