<svg width="20" height="20" viewBox="0 0 20 20" fill="none" xmlns="http://www.w3.org/2000/svg">
<path d="M4.16667 12.2916C2.9 12.2916 1.875 11.2666 1.875 9.99998C1.875 8.73331 2.9 7.70831 4.16667 7.70831C5.43333 7.70831 6.45833 8.73331 6.45833 9.99998C6.45833 11.2666 5.43333 12.2916 4.16667 12.2916ZM4.16667 8.95831C3.59167 8.95831 3.125 9.42498 3.125 9.99998C3.125 10.575 3.59167 11.0416 4.16667 11.0416C4.74167 11.0416 5.20833 10.575 5.20833 9.99998C5.20833 9.42498 4.74167 8.95831 4.16667 8.95831Z" fill="#2252A0"/>
<path d="M15.8333 12.2916C14.5667 12.2916 13.5417 11.2666 13.5417 9.99998C13.5417 8.73331 14.5667 7.70831 15.8333 7.70831C17.1 7.70831 18.125 8.73331 18.125 9.99998C18.125 11.2666 17.1 12.2916 15.8333 12.2916ZM15.8333 8.95831C15.2583 8.95831 14.7917 9.42498 14.7917 9.99998C14.7917 10.575 15.2583 11.0416 15.8333 11.0416C16.4083 11.0416 16.875 10.575 16.875 9.99998C16.875 9.42498 16.4083 8.95831 15.8333 8.95831Z" fill="#2252A0"/>
<path d="M10 12.2916C8.73334 12.2916 7.70834 11.2666 7.70834 9.99998C7.70834 8.73331 8.73334 7.70831 10 7.70831C11.2667 7.70831 12.2917 8.73331 12.2917 9.99998C12.2917 11.2666 11.2667 12.2916 10 12.2916ZM10 8.95831C9.42501 8.95831 8.95834 9.42498 8.95834 9.99998C8.95834 10.575 9.42501 11.0416 10 11.0416C10.575 11.0416 11.0417 10.575 11.0417 9.99998C11.0417 9.42498 10.575 8.95831 10 8.95831Z" fill="#2252A0"/>
</svg>
