<svg width="16" height="16" viewBox="0 0 16 16" fill="none" xmlns="http://www.w3.org/2000/svg">
<path d="M8 10.5C6.62 10.5 5.5 9.38 5.5 8C5.5 6.62 6.62 5.5 8 5.5C9.38 5.5 10.5 6.62 10.5 8C10.5 9.38 9.38 10.5 8 10.5ZM8 6.5C7.17333 6.5 6.5 7.17333 6.5 8C6.5 8.82667 7.17333 9.5 8 9.5C8.82667 9.5 9.5 8.82667 9.5 8C9.5 7.17333 8.82667 6.5 8 6.5Z" fill="#5F5F5F"/>
<path d="M10.14 14.7933C10 14.7933 9.86001 14.7733 9.72001 14.74C9.30668 14.6267 8.96001 14.3667 8.74001 14L8.66001 13.8667C8.26668 13.1867 7.72668 13.1867 7.33334 13.8667L7.26001 13.9933C7.04001 14.3667 6.69334 14.6333 6.28001 14.74C5.86001 14.8533 5.42668 14.7933 5.06001 14.5733L3.91334 13.9133C3.50668 13.68 3.21334 13.3 3.08668 12.84C2.96668 12.38 3.02668 11.9067 3.26001 11.5C3.45334 11.16 3.50668 10.8533 3.39334 10.66C3.28001 10.4667 2.99334 10.3533 2.60001 10.3533C1.62668 10.3533 0.833344 9.56 0.833344 8.58667V7.41334C0.833344 6.44 1.62668 5.64667 2.60001 5.64667C2.99334 5.64667 3.28001 5.53334 3.39334 5.34C3.50668 5.14667 3.46001 4.84 3.26001 4.5C3.02668 4.09334 2.96668 3.61334 3.08668 3.16C3.20668 2.7 3.50001 2.32 3.91334 2.08667L5.06668 1.42667C5.82001 0.980003 6.81334 1.24 7.26668 2.00667L7.34668 2.14C7.74001 2.82 8.28001 2.82 8.67334 2.14L8.74668 2.01334C9.20001 1.24 10.1933 0.980003 10.9533 1.43334L12.1 2.09334C12.5067 2.32667 12.8 2.70667 12.9267 3.16667C13.0467 3.62667 12.9867 4.1 12.7533 4.50667C12.56 4.84667 12.5067 5.15334 12.62 5.34667C12.7333 5.54 13.02 5.65334 13.4133 5.65334C14.3867 5.65334 15.18 6.44667 15.18 7.42V8.59334C15.18 9.56667 14.3867 10.36 13.4133 10.36C13.02 10.36 12.7333 10.4733 12.62 10.6667C12.5067 10.86 12.5533 11.1667 12.7533 11.5067C12.9867 11.9133 13.0533 12.3933 12.9267 12.8467C12.8067 13.3067 12.5133 13.6867 12.1 13.92L10.9467 14.58C10.6933 14.72 10.42 14.7933 10.14 14.7933ZM8.00001 12.3267C8.59334 12.3267 9.14668 12.7 9.52668 13.36L9.60001 13.4867C9.68001 13.6267 9.81334 13.7267 9.97334 13.7667C10.1333 13.8067 10.2933 13.7867 10.4267 13.7067L11.58 13.04C11.7533 12.94 11.8867 12.7733 11.94 12.5733C11.9933 12.3733 11.9667 12.1667 11.8667 11.9933C11.4867 11.34 11.44 10.6667 11.7333 10.1533C12.0267 9.64 12.6333 9.34667 13.3933 9.34667C13.82 9.34667 14.16 9.00667 14.16 8.58V7.40667C14.16 6.98667 13.82 6.64 13.3933 6.64C12.6333 6.64 12.0267 6.34667 11.7333 5.83334C11.44 5.32 11.4867 4.64667 11.8667 3.99334C11.9667 3.82 11.9933 3.61334 11.94 3.41334C11.8867 3.21334 11.76 3.05334 11.5867 2.94667L10.4333 2.28667C10.1467 2.11334 9.76668 2.21334 9.59334 2.50667L9.52001 2.63334C9.14001 3.29334 8.58668 3.66667 7.99334 3.66667C7.40001 3.66667 6.84668 3.29334 6.46668 2.63334L6.39334 2.5C6.22668 2.22 5.85334 2.12 5.56668 2.28667L4.41334 2.95334C4.24001 3.05334 4.10668 3.22 4.05334 3.42C4.00001 3.62 4.02668 3.82667 4.12668 4C4.50668 4.65334 4.55334 5.32667 4.26001 5.84C3.96668 6.35334 3.36001 6.64667 2.60001 6.64667C2.17334 6.64667 1.83334 6.98667 1.83334 7.41334V8.58667C1.83334 9.00667 2.17334 9.35334 2.60001 9.35334C3.36001 9.35334 3.96668 9.64667 4.26001 10.16C4.55334 10.6733 4.50668 11.3467 4.12668 12C4.02668 12.1733 4.00001 12.38 4.05334 12.58C4.10668 12.78 4.23334 12.94 4.40668 13.0467L5.56001 13.7067C5.70001 13.7933 5.86668 13.8133 6.02001 13.7733C6.18001 13.7333 6.31334 13.6267 6.40001 13.4867L6.47334 13.36C6.85334 12.7067 7.40668 12.3267 8.00001 12.3267Z" fill="#5F5F5F"/>
</svg>
