<svg width="18" height="18" viewBox="0 0 18 18" fill="none" xmlns="http://www.w3.org/2000/svg">
<path d="M9 0.9375C9.31066 0.9375 9.5625 1.18934 9.5625 1.5V2.25C9.5625 2.56066 9.31066 2.8125 9 2.8125C8.68934 2.8125 8.4375 2.56066 8.4375 2.25V1.5C8.4375 1.18934 8.68934 0.9375 9 0.9375Z" fill="#E9EAF0"/>
<path fill-rule="evenodd" clip-rule="evenodd" d="M4.6875 9C4.6875 6.61827 6.61827 4.6875 9 4.6875C11.3817 4.6875 13.3125 6.61827 13.3125 9C13.3125 11.3817 11.3817 13.3125 9 13.3125C6.61827 13.3125 4.6875 11.3817 4.6875 9ZM9 5.8125C7.23959 5.8125 5.8125 7.23959 5.8125 9C5.8125 10.7604 7.23959 12.1875 9 12.1875C10.7604 12.1875 12.1875 10.7604 12.1875 9C12.1875 7.23959 10.7604 5.8125 9 5.8125Z" fill="#E9EAF0"/>
<path d="M4.09446 3.29897C3.87479 3.0793 3.51863 3.0793 3.29896 3.29897C3.07929 3.51864 3.07929 3.87479 3.29896 4.09446L3.82929 4.62479C4.04896 4.84446 4.40512 4.84446 4.62479 4.62479C4.84446 4.40512 4.84446 4.04897 4.62479 3.8293L4.09446 3.29897Z" fill="#E9EAF0"/>
<path d="M17.0625 9C17.0625 9.31066 16.8107 9.5625 16.5 9.5625H15.75C15.4393 9.5625 15.1875 9.31066 15.1875 9C15.1875 8.68934 15.4393 8.4375 15.75 8.4375H16.5C16.8107 8.4375 17.0625 8.68934 17.0625 9Z" fill="#E9EAF0"/>
<path d="M14.701 4.09446C14.9207 3.87479 14.9207 3.51863 14.701 3.29896C14.4814 3.07929 14.1252 3.07929 13.9055 3.29896L13.3752 3.82929C13.1555 4.04896 13.1555 4.40512 13.3752 4.62479C13.5949 4.84446 13.951 4.84446 14.1707 4.62479L14.701 4.09446Z" fill="#E9EAF0"/>
<path d="M9 15.1875C9.31066 15.1875 9.5625 15.4393 9.5625 15.75V16.5C9.5625 16.8107 9.31066 17.0625 9 17.0625C8.68934 17.0625 8.4375 16.8107 8.4375 16.5V15.75C8.4375 15.4393 8.68934 15.1875 9 15.1875Z" fill="#E9EAF0"/>
<path d="M14.1708 13.3752C13.9511 13.1555 13.5949 13.1555 13.3753 13.3752C13.1556 13.5949 13.1556 13.951 13.3753 14.1707L13.9056 14.701C14.1253 14.9207 14.4814 14.9207 14.7011 14.701C14.9208 14.4814 14.9208 14.1252 14.7011 13.9055L14.1708 13.3752Z" fill="#E9EAF0"/>
<path d="M2.8125 9C2.8125 9.31066 2.56066 9.5625 2.25 9.5625H1.5C1.18934 9.5625 0.9375 9.31066 0.9375 9C0.9375 8.68934 1.18934 8.4375 1.5 8.4375H2.25C2.56066 8.4375 2.8125 8.68934 2.8125 9Z" fill="#E9EAF0"/>
<path d="M4.62474 14.1707C4.84441 13.951 4.84441 13.5949 4.62474 13.3752C4.40507 13.1555 4.04891 13.1555 3.82924 13.3752L3.29891 13.9055C3.07924 14.1252 3.07924 14.4814 3.29891 14.701C3.51858 14.9207 3.87474 14.9207 4.09441 14.701L4.62474 14.1707Z" fill="#E9EAF0"/>
</svg>
