<svg width="16" height="16" viewBox="0 0 16 16" fill="none" xmlns="http://www.w3.org/2000/svg">
<path d="M9.85996 12.9467C9.78663 12.9467 9.70664 12.9267 9.63997 12.8934C9.39331 12.7667 9.2933 12.4667 9.4133 12.22L10.84 9.37333C10.9266 9.20667 11.1 9.10002 11.2866 9.10002C11.4733 9.10002 11.6466 9.20667 11.7333 9.38001L13.16 12.2267C13.2866 12.4734 13.1866 12.7733 12.9333 12.9C12.6866 13.0267 12.3866 12.9267 12.26 12.6733L11.2866 10.72L10.3133 12.6733C10.22 12.8467 10.04 12.9467 9.85996 12.9467Z" fill="#C9659E"/>
<path d="M12.4534 12.4399H10.1068C9.83342 12.4399 9.60675 12.2133 9.60675 11.9399C9.60675 11.6666 9.83342 11.4399 10.1068 11.4399H12.4534C12.7267 11.4399 12.9534 11.6666 12.9534 11.9399C12.9534 12.2133 12.7334 12.4399 12.4534 12.4399Z" fill="#C9659E"/>
<path d="M11.2799 15.1667C9.13992 15.1667 7.39325 13.4267 7.39325 11.28C7.39325 9.13336 9.13325 7.39339 11.2799 7.39339C13.4199 7.39339 15.1666 9.13336 15.1666 11.28C15.1666 13.4267 13.4266 15.1667 11.2799 15.1667ZM11.2799 8.40003C9.68658 8.40003 8.39325 9.69337 8.39325 11.2867C8.39325 12.88 9.68658 14.1734 11.2799 14.1734C12.8666 14.1734 14.1666 12.88 14.1666 11.2867C14.1666 9.69337 12.8733 8.40003 11.2799 8.40003Z" fill="#C9659E"/>
<path d="M3.23998 8.46667C2.49998 8.46667 1.91331 8.25999 1.49998 7.85999C1.05998 7.43332 0.833313 6.78666 0.833313 5.95333V3.34001C0.833313 1.72001 1.72665 0.82666 3.34665 0.82666H5.95998C6.79331 0.82666 7.43331 1.04666 7.86665 1.49333C8.28665 1.92666 8.49332 2.55335 8.47332 3.35335V5.95333C8.49332 6.76666 8.28664 7.40667 7.85331 7.84001C7.41998 8.27334 6.77997 8.47334 5.95331 8.46H3.35331C3.30665 8.46667 3.27331 8.46667 3.23998 8.46667ZM3.34665 1.83333C2.27332 1.83333 1.83331 2.27335 1.83331 3.34668V5.96C1.83331 6.51334 1.95331 6.91331 2.19331 7.14665C2.42664 7.37331 2.79998 7.47334 3.32665 7.46667H5.95331C6.51331 7.48001 6.89998 7.36667 7.13331 7.13334C7.36664 6.90001 7.47331 6.50667 7.45998 5.96667V3.34001C7.47331 2.80667 7.36665 2.42665 7.13998 2.19332C6.90665 1.95332 6.50664 1.83333 5.95331 1.83333H3.34665Z" fill="#C9659E"/>
<path d="M5.99994 4.3999H3.29327C3.01994 4.3999 2.79327 4.17324 2.79327 3.8999C2.79327 3.62657 3.01994 3.3999 3.29327 3.3999H5.99994C6.27327 3.3999 6.49994 3.62657 6.49994 3.8999C6.49994 4.17324 6.27994 4.3999 5.99994 4.3999Z" fill="#C9659E"/>
<path d="M4.65332 4.39994C4.37999 4.39994 4.15332 4.17328 4.15332 3.89994V3.44661C4.15332 3.17328 4.37999 2.94661 4.65332 2.94661C4.92665 2.94661 5.15332 3.17328 5.15332 3.44661V3.89994C5.15332 4.17328 4.92665 4.39994 4.65332 4.39994Z" fill="#C9659E"/>
<path d="M3.29327 6.50663C3.01994 6.50663 2.79327 6.27997 2.79327 6.00663C2.79327 5.7333 3.01994 5.50663 3.29327 5.50663C4.13994 5.50663 4.82661 4.78664 4.82661 3.89331C4.82661 3.61998 5.05328 3.39331 5.32661 3.39331C5.59994 3.39331 5.82661 3.61998 5.82661 3.89331C5.82661 5.33331 4.69327 6.50663 3.29327 6.50663Z" fill="#C9659E"/>
<path d="M6.00664 6.50663C5.38664 6.50663 4.79331 6.1933 4.37331 5.63997C4.20665 5.41997 4.25332 5.1066 4.47332 4.93994C4.69332 4.77327 5.00664 4.81995 5.17331 5.03995C5.39998 5.34662 5.69998 5.5133 6.00664 5.5133C6.27998 5.5133 6.50664 5.73997 6.50664 6.0133C6.50664 6.28664 6.27998 6.50663 6.00664 6.50663Z" fill="#C9659E"/>
<path d="M5.99998 15.1667C3.15331 15.1667 0.833313 12.8467 0.833313 10C0.833313 9.72667 1.05998 9.5 1.33331 9.5C1.60665 9.5 1.83331 9.72667 1.83331 10C1.83331 11.9733 3.20665 13.6267 5.05331 14.06L4.87331 13.76C4.73331 13.52 4.80665 13.2133 5.04665 13.0733C5.27998 12.9333 5.59332 13.0067 5.73332 13.2467L6.43331 14.4133C6.52664 14.5667 6.52665 14.76 6.43998 14.9133C6.34665 15.0667 6.17998 15.1667 5.99998 15.1667Z" fill="#C9659E"/>
<path d="M14.6666 6.5C14.3933 6.5 14.1666 6.27333 14.1666 6C14.1666 4.02667 12.7933 2.37331 10.9466 1.93998L11.1266 2.23999C11.2666 2.47999 11.1933 2.78668 10.9533 2.92668C10.72 3.06668 10.4066 2.99334 10.2666 2.75334L9.56665 1.58667C9.47332 1.43334 9.47331 1.24 9.55998 1.08667C9.64664 0.92667 9.81331 0.833333 9.99331 0.833333C12.84 0.833333 15.16 3.15333 15.16 6C15.1666 6.27333 14.94 6.5 14.6666 6.5Z" fill="#C9659E"/>
</svg>
