<svg width="16" height="16" viewBox="0 0 16 16" fill="none" xmlns="http://www.w3.org/2000/svg">
<path d="M14 4.48678C13.9867 4.48678 13.9667 4.48678 13.9467 4.48678C10.42 4.13345 6.9 4.00012 3.41334 4.35345L2.05334 4.48678C1.77334 4.51345 1.52667 4.31345 1.5 4.03345C1.47334 3.75345 1.67334 3.51345 1.94667 3.48678L3.30667 3.35345C6.85334 2.99345 10.4467 3.13345 14.0467 3.48678C14.32 3.51345 14.52 3.76012 14.4933 4.03345C14.4733 4.29345 14.2533 4.48678 14 4.48678Z" fill="#C9659E"/>
<path d="M5.66669 3.81345C5.64003 3.81345 5.61336 3.81345 5.58003 3.80678C5.31336 3.76012 5.12669 3.50012 5.17336 3.23345L5.32003 2.36012C5.42669 1.72012 5.57336 0.83345 7.12669 0.83345H8.87336C10.4334 0.83345 10.58 1.75345 10.68 2.36678L10.8267 3.23345C10.8734 3.50678 10.6867 3.76678 10.42 3.80678C10.1467 3.85345 9.88669 3.66678 9.84669 3.40012L9.70003 2.53345C9.60669 1.95345 9.58669 1.84012 8.88003 1.84012H7.13336C6.42669 1.84012 6.41336 1.93345 6.31336 2.52678L6.16003 3.39345C6.12003 3.64012 5.90669 3.81345 5.66669 3.81345Z" fill="#C9659E"/>
<path d="M10.14 15.1668H5.85997C3.53331 15.1668 3.43997 13.8801 3.36664 12.8401L2.93331 6.12678C2.91331 5.85344 3.12664 5.61344 3.39997 5.59344C3.67997 5.58011 3.91331 5.78678 3.93331 6.06011L4.36664 12.7734C4.43997 13.7868 4.46664 14.1668 5.85997 14.1668H10.14C11.54 14.1668 11.5666 13.7868 11.6333 12.7734L12.0666 6.06011C12.0866 5.78678 12.3266 5.58011 12.6 5.59344C12.8733 5.61344 13.0866 5.84678 13.0666 6.12678L12.6333 12.8401C12.56 13.8801 12.4666 15.1668 10.14 15.1668Z" fill="#C9659E"/>
<path d="M9.10666 11.5001H6.88666C6.61332 11.5001 6.38666 11.2734 6.38666 11.0001C6.38666 10.7268 6.61332 10.5001 6.88666 10.5001H9.10666C9.37999 10.5001 9.60666 10.7268 9.60666 11.0001C9.60666 11.2734 9.37999 11.5001 9.10666 11.5001Z" fill="#C9659E"/>
<path d="M9.66665 8.83345H6.33331C6.05998 8.83345 5.83331 8.60678 5.83331 8.33345C5.83331 8.06012 6.05998 7.83345 6.33331 7.83345H9.66665C9.93998 7.83345 10.1666 8.06012 10.1666 8.33345C10.1666 8.60678 9.93998 8.83345 9.66665 8.83345Z" fill="#C9659E"/>
</svg>
