<svg width="16" height="16" viewBox="0 0 16 16" fill="none" xmlns="http://www.w3.org/2000/svg">
<path d="M4 9.92668C3.72667 9.92668 3.5 9.70001 3.5 9.42668V6.56665C3.5 6.29332 3.72667 6.06665 4 6.06665C4.27333 6.06665 4.5 6.29332 4.5 6.56665V9.42668C4.5 9.70668 4.27333 9.92668 4 9.92668Z" fill="#C9659E"/>
<path d="M6 10.88C5.72667 10.88 5.5 10.6533 5.5 10.38V5.61996C5.5 5.34662 5.72667 5.11996 6 5.11996C6.27333 5.11996 6.5 5.34662 6.5 5.61996V10.38C6.5 10.66 6.27333 10.88 6 10.88Z" fill="#C9659E"/>
<path d="M8 11.8333C7.72667 11.8333 7.5 11.6067 7.5 11.3333V4.66667C7.5 4.39333 7.72667 4.16667 8 4.16667C8.27333 4.16667 8.5 4.39333 8.5 4.66667V11.3333C8.5 11.6067 8.27333 11.8333 8 11.8333Z" fill="#C9659E"/>
<path d="M10 10.88C9.72667 10.88 9.5 10.6533 9.5 10.38V5.61996C9.5 5.34662 9.72667 5.11996 10 5.11996C10.2733 5.11996 10.5 5.34662 10.5 5.61996V10.38C10.5 10.66 10.2733 10.88 10 10.88Z" fill="#C9659E"/>
<path d="M12 9.92668C11.7267 9.92668 11.5 9.70001 11.5 9.42668V6.56665C11.5 6.29332 11.7267 6.06665 12 6.06665C12.2733 6.06665 12.5 6.29332 12.5 6.56665V9.42668C12.5 9.70668 12.2733 9.92668 12 9.92668Z" fill="#C9659E"/>
</svg>
