<svg width="25" height="24" viewBox="0 0 25 24" fill="none" xmlns="http://www.w3.org/2000/svg">
<path fill-rule="evenodd" clip-rule="evenodd" d="M6.31144 1.34912C5.12781 1.34912 3.99264 1.8192 3.15552 2.65599C2.31841 3.49278 1.8479 4.62778 1.84744 5.81141V17.7154C1.84744 18.8993 2.31776 20.0348 3.15492 20.8719C3.99208 21.7091 5.12752 22.1794 6.31144 22.1794H18.2154C19.3991 22.179 20.5341 21.7084 21.3709 20.8713C22.2077 20.0342 22.6777 18.899 22.6777 17.7154V5.81141C22.6773 4.62807 22.207 3.49334 21.3703 2.6566C20.5335 1.81985 19.3988 1.34958 18.2154 1.34912H6.31144ZM19.4994 5.81826C19.4994 6.15926 19.364 6.48628 19.1229 6.7274C18.8817 6.96852 18.5547 7.10398 18.2137 7.10398C17.8727 7.10398 17.5457 6.96852 17.3046 6.7274C17.0635 6.48628 16.928 6.15926 16.928 5.81826C16.928 5.47727 17.0635 5.15024 17.3046 4.90913C17.5457 4.66801 17.8727 4.53255 18.2137 4.53255C18.5547 4.53255 18.8817 4.66801 19.1229 4.90913C19.364 5.15024 19.4994 5.47727 19.4994 5.81826ZM12.2652 8.19769C11.3195 8.19769 10.4125 8.57336 9.74382 9.24207C9.07512 9.91077 8.69944 10.8177 8.69944 11.7634C8.69944 12.7091 9.07512 13.616 9.74382 14.2847C10.4125 14.9534 11.3195 15.3291 12.2652 15.3291C13.2108 15.3291 14.1178 14.9534 14.7865 14.2847C15.4552 13.616 15.8309 12.7091 15.8309 11.7634C15.8309 10.8177 15.4552 9.91077 14.7865 9.24207C14.1178 8.57336 13.2108 8.19769 12.2652 8.19769ZM6.98344 11.7634C6.98344 10.3631 7.53973 9.02008 8.52992 8.02988C9.52011 7.03969 10.8631 6.48341 12.2634 6.48341C13.6638 6.48341 15.0068 7.03969 15.997 8.02988C16.9872 9.02008 17.5434 10.3631 17.5434 11.7634C17.5434 13.1637 16.9872 14.5067 15.997 15.4969C15.0068 16.4871 13.6638 17.0434 12.2634 17.0434C10.8631 17.0434 9.52011 16.4871 8.52992 15.4969C7.53973 14.5067 6.98344 13.1637 6.98344 11.7634Z" fill="#2252A0"/>
</svg>
