<svg width="25" height="24" viewBox="0 0 25 24" fill="none" xmlns="http://www.w3.org/2000/svg">
<g clip-path="url(#clip0_790_7130)">
<path d="M11.3 0C8.43566 0 5.68864 1.13785 3.66325 3.16325C1.63785 5.18864 0.5 7.93566 0.5 10.8C0.5 13.6643 1.63785 16.4114 3.66325 18.4368C5.68864 20.4621 8.43566 21.6 11.3 21.6C14.1643 21.6 16.9114 20.4621 18.9368 18.4368C20.9621 16.4114 22.1 13.6643 22.1 10.8C22.1 7.93566 20.9621 5.18864 18.9368 3.16325C16.9114 1.13785 14.1643 0 11.3 0ZM14.804 14.808C14.804 15.228 14.972 15.564 15.236 15.6C15.5 15.636 15.8 15.336 15.932 14.88L16.172 14.976C16.5901 15.1995 16.9185 15.56 17.1021 15.9971C17.2856 16.4341 17.3131 16.921 17.18 17.376C17.0918 17.7798 16.8741 18.1437 16.56 18.4123C16.2458 18.6809 15.8526 18.8395 15.44 18.864C14.852 17.412 12.908 18.936 11.168 18.6C10.8062 18.509 10.472 18.3314 10.194 18.0827C9.916 17.834 9.70255 17.5214 9.572 17.172C11 17.04 12.992 15.096 14.804 14.808ZM10.1 13.524C10.633 13.5232 11.1477 13.3295 11.5492 12.9788C11.9506 12.6281 12.2116 12.1441 12.284 11.616C12.5385 11.9301 12.6702 12.3259 12.6548 12.7298C12.6393 13.1337 12.4777 13.5183 12.2 13.812C12.0488 13.9444 11.871 14.0427 11.6785 14.1005C11.4861 14.1582 11.2834 14.174 11.0844 14.1467C10.8853 14.1194 10.6944 14.0496 10.5246 13.9422C10.3547 13.8348 10.21 13.6922 10.1 13.524ZM13.7 12.612C14.192 13.08 17.3 12.54 17.924 13.92C16.784 13.68 14.384 14.652 13.76 12.624L13.7 12.612ZM12.176 6.54V6.864C11.396 5.94 10.58 5.58 10.244 6.18C9.908 6.78 11.444 7.512 11.156 8.436C10.868 9.36 9.632 9.108 8.9 10.368C8.168 11.628 8.312 13.272 10.388 14.772C9.68796 14.6944 9.02607 14.4131 8.48429 13.9631C7.94252 13.513 7.54466 12.9139 7.34 12.24C6.86 10.8 7.232 9.528 6.404 9.288C5.3 8.952 4.1 10.452 4.1 11.76C2.588 10.248 4.16 8.328 2.66 6.744C3.64617 4.64415 5.36898 2.97945 7.50141 2.06587C9.63385 1.15228 12.0275 1.0534 14.228 1.788C13.5743 2.39383 13.0542 3.12936 12.7008 3.94759C12.3475 4.76583 12.1688 5.64877 12.176 6.54Z" fill="#2252A0"/>
</g>
<defs>
<clipPath id="clip0_790_7130">
<rect width="24" height="24" fill="white" transform="translate(0.5)"/>
</clipPath>
</defs>
</svg>
