<svg width="25" height="24" viewBox="0 0 25 24" fill="none" xmlns="http://www.w3.org/2000/svg">
<g clip-path="url(#clip0_790_7134)">
<path d="M12.5 0.375C6.07775 0.375 0.875 5.5785 0.875 12C0.875 18.4215 6.0785 23.625 12.5 23.625C18.9215 23.625 24.125 18.4215 24.125 12C24.125 5.5785 18.9215 0.375 12.5 0.375ZM18.2098 8.33925L16.3018 17.3302C16.1608 17.9678 15.7812 18.1222 15.2518 17.8223L12.3455 15.6803L10.9438 17.0303C10.7893 17.1847 10.658 17.316 10.358 17.316L10.5642 14.358L15.95 9.492C16.1848 9.28575 15.8982 9.16875 15.5885 9.375L8.93225 13.5653L6.0635 12.6698C5.44025 12.4732 5.426 12.0465 6.19475 11.7465L17.4028 7.42425C17.9233 7.23675 18.3778 7.551 18.209 8.3385L18.2098 8.33925Z" fill="#2252A0"/>
</g>
<defs>
<clipPath id="clip0_790_7134">
<rect width="24" height="24" fill="white" transform="translate(0.5)"/>
</clipPath>
</defs>
</svg>
