<svg width="22" height="24" viewBox="0 0 22 24" fill="none" xmlns="http://www.w3.org/2000/svg">
<g clip-path="url(#clip0_790_7126)">
<path d="M3.5 1.5C1.84531 1.5 0.5 2.84531 0.5 4.5V19.5C0.5 21.1547 1.84531 22.5 3.5 22.5H18.5C20.1547 22.5 21.5 21.1547 21.5 19.5V4.5C21.5 2.84531 20.1547 1.5 18.5 1.5H3.5ZM17.4266 5.4375L12.5609 10.9969L18.2844 18.5625H13.8031L10.2969 13.9734L6.27969 18.5625H4.05313L9.25625 12.6141L3.76719 5.4375H8.36094L11.5344 9.63281L15.2 5.4375H17.4266ZM15.6547 17.2313L7.69062 6.69844H6.36406L14.4172 17.2313H15.65H15.6547Z" fill="#2252A0"/>
</g>
<defs>
<clipPath id="clip0_790_7126">
<rect width="21" height="24" fill="white" transform="translate(0.5)"/>
</clipPath>
</defs>
</svg>
