<svg width="25" height="24" viewBox="0 0 25 24" fill="none" xmlns="http://www.w3.org/2000/svg">
<path d="M22.4684 6.5175C22.3801 6.17189 22.2109 5.85224 21.9747 5.58491C21.7385 5.31758 21.4421 5.11024 21.11 4.98C17.8962 3.73875 12.7812 3.75 12.5 3.75C12.2188 3.75 7.10375 3.73875 3.89 4.98C3.5579 5.11024 3.26153 5.31758 3.02534 5.58491C2.78915 5.85224 2.6199 6.17189 2.53156 6.5175C2.28875 7.45313 2 9.16313 2 12C2 14.8369 2.28875 16.5469 2.53156 17.4825C2.61977 17.8283 2.78895 18.1481 3.02515 18.4156C3.26136 18.6831 3.5578 18.8906 3.89 19.0209C6.96875 20.2088 11.7875 20.25 12.4381 20.25H12.5619C13.2125 20.25 18.0341 20.2088 21.11 19.0209C21.4422 18.8906 21.7386 18.6831 21.9748 18.4156C22.211 18.1481 22.3802 17.8283 22.4684 17.4825C22.7113 16.545 23 14.8369 23 12C23 9.16313 22.7113 7.45313 22.4684 6.5175ZM15.5553 12.6113L11.8053 15.2363C11.6931 15.3148 11.5616 15.3612 11.4249 15.3703C11.2883 15.3794 11.1517 15.351 11.0301 15.288C10.9085 15.225 10.8064 15.1299 10.735 15.013C10.6636 14.8962 10.6256 14.762 10.625 14.625V9.375C10.625 9.2378 10.6627 9.10324 10.7339 8.98597C10.8051 8.86869 10.9071 8.77319 11.0289 8.70987C11.1506 8.64655 11.2873 8.61783 11.4242 8.62683C11.5611 8.63584 11.6929 8.68222 11.8053 8.76094L15.5553 11.3859C15.654 11.4551 15.7345 11.547 15.7901 11.6539C15.8457 11.7608 15.8747 11.8795 15.8747 12C15.8747 12.1205 15.8457 12.2392 15.7901 12.3461C15.7345 12.453 15.654 12.5449 15.5553 12.6141V12.6113Z" fill="#2252A0"/>
</svg>
