<svg width="23" height="22" viewBox="0 0 23 22" fill="none" xmlns="http://www.w3.org/2000/svg">
<path d="M22.286 8.84565H21.4V8.8H11.5V13.2H17.7167C16.8097 15.7613 14.3726 17.6 11.5 17.6C7.85515 17.6 4.9 14.6448 4.9 11C4.9 7.35515 7.85515 4.4 11.5 4.4C13.1824 4.4 14.7131 5.0347 15.8785 6.07145L18.9899 2.9601C17.0253 1.12915 14.3974 0 11.5 0C5.42525 0 0.5 4.92525 0.5 11C0.5 17.0747 5.42525 22 11.5 22C17.5747 22 22.5 17.0747 22.5 11C22.5 10.2624 22.4241 9.5425 22.286 8.84565Z" fill="#FFC107"/>
<path d="M1.76855 5.88005L5.3826 8.5305C6.3605 6.1094 8.7288 4.4 11.5003 4.4C13.1827 4.4 14.7134 5.0347 15.8788 6.07145L18.9902 2.9601C17.0256 1.12915 14.3977 0 11.5003 0C7.27515 0 3.61105 2.38535 1.76855 5.88005Z" fill="#FF3D00"/>
<path d="M11.4998 22C14.3411 22 16.9228 20.9127 18.8747 19.1444L15.4702 16.2635C14.3658 17.1001 12.993 17.6 11.4998 17.6C8.63868 17.6 6.20933 15.7757 5.29413 13.2297L1.70703 15.9935C3.52753 19.5558 7.22463 22 11.4998 22Z" fill="#4CAF50"/>
<path d="M22.286 8.8457H21.4V8.80005H11.5V13.2H17.7167C17.2811 14.4304 16.4896 15.4913 15.4688 16.2641C15.4693 16.2635 15.4699 16.2635 15.4704 16.263L18.8749 19.1439C18.634 19.3628 22.5 16.5 22.5 11C22.5 10.2625 22.4241 9.54255 22.286 8.8457Z" fill="#1976D2"/>
</svg>
