<svg width="56" height="56" viewBox="0 0 56 56" fill="none" xmlns="http://www.w3.org/2000/svg">
<path opacity="0.4" d="M46.5966 23.3333V42C46.5966 49 44.2633 51.3333 37.2633 51.3333H18.5966C11.5966 51.3333 9.26331 49 9.26331 42V23.3333H46.5966Z" fill="white"/>
<path d="M50.1667 16.3333V18.6667C50.1667 21.2333 48.93 23.3333 45.5 23.3333H10.5C6.93004 23.3333 5.83337 21.2333 5.83337 18.6667V16.3333C5.83337 13.7667 6.93004 11.6667 10.5 11.6667H45.5C48.93 11.6667 50.1667 13.7667 50.1667 16.3333Z" fill="white"/>
<path opacity="0.4" d="M27.16 11.6667H14.28C13.4867 10.8033 13.51 9.47333 14.35 8.63333L17.6634 5.32C18.5267 4.45667 19.95 4.45667 20.8134 5.32L27.16 11.6667Z" fill="white"/>
<path opacity="0.4" d="M41.6967 11.6667H28.8167L35.1633 5.32C36.0266 4.45667 37.45 4.45667 38.3133 5.32L41.6267 8.63333C42.4667 9.47333 42.49 10.8033 41.6967 11.6667Z" fill="white"/>
<path opacity="0.6" d="M20.86 23.3333V35.3267C20.86 37.1933 22.9133 38.29 24.4767 37.2867L26.67 35.84C27.4633 35.3267 28.4667 35.3267 29.2367 35.84L31.3133 37.24C32.8533 38.2667 34.93 37.17 34.93 35.3033V23.3333H20.86Z" fill="#E9B6D3"/>
</svg>
