<svg width="24" height="25" viewBox="0 0 24 25" fill="none" xmlns="http://www.w3.org/2000/svg">
<path opacity="0.4" d="M12 5.80001V21.83C11.83 21.83 11.65 21.8 11.51 21.72L11.47 21.7C9.55 20.65 6.2 19.55 4.03 19.26L3.74 19.22C2.78 19.1 2 18.2 2 17.24V5.16001C2 3.97001 2.97 3.07001 4.16 3.17001C6.26 3.34001 9.44 4.40001 11.22 5.51001L11.47 5.66001C11.62 5.75001 11.81 5.80001 12 5.80001Z" fill="#2252A0"/>
<path d="M22 5.17003V17.24C22 18.2 21.22 19.1 20.26 19.22L19.93 19.26C17.75 19.55 14.39 20.66 12.47 21.72C12.34 21.8 12.18 21.83 12 21.83V5.80003C12.19 5.80003 12.38 5.75003 12.53 5.66003L12.7 5.55003C14.48 4.43003 17.67 3.36003 19.77 3.18003H19.83C21.02 3.08003 22 3.97003 22 5.17003Z" fill="#2252A0"/>
<path d="M7.75 9.73999H5.5C5.09 9.73999 4.75 9.39999 4.75 8.98999C4.75 8.57999 5.09 8.23999 5.5 8.23999H7.75C8.16 8.23999 8.5 8.57999 8.5 8.98999C8.5 9.39999 8.16 9.73999 7.75 9.73999Z" fill="#2252A0"/>
<path d="M8.5 12.74H5.5C5.09 12.74 4.75 12.4 4.75 11.99C4.75 11.58 5.09 11.24 5.5 11.24H8.5C8.91 11.24 9.25 11.58 9.25 11.99C9.25 12.4 8.91 12.74 8.5 12.74Z" fill="#2252A0"/>
</svg>
