<svg width="24" height="25" viewBox="0 0 24 25" fill="none" xmlns="http://www.w3.org/2000/svg">
<path opacity="0.4" d="M17.98 11.29V15.29C17.98 15.55 17.97 15.8 17.94 16.04C17.71 18.74 16.12 20.08 13.19 20.08H12.79C12.54 20.08 12.3 20.2 12.15 20.4L10.95 22C10.42 22.71 9.56 22.71 9.03 22L7.82999 20.4C7.69999 20.23 7.41 20.08 7.19 20.08H6.79001C3.60001 20.08 2 19.29 2 15.29V11.29C2 8.36001 3.35001 6.77001 6.04001 6.54001C6.28001 6.51001 6.53001 6.5 6.79001 6.5H13.19C16.38 6.5 17.98 8.10001 17.98 11.29Z" fill="#2252A0"/>
<path d="M9.98999 14.5C9.42999 14.5 8.98999 14.05 8.98999 13.5C8.98999 12.95 9.43999 12.5 9.98999 12.5C10.54 12.5 10.99 12.95 10.99 13.5C10.99 14.05 10.55 14.5 9.98999 14.5Z" fill="#2252A0"/>
<path d="M13.49 14.5C12.93 14.5 12.49 14.05 12.49 13.5C12.49 12.95 12.94 12.5 13.49 12.5C14.04 12.5 14.49 12.95 14.49 13.5C14.49 14.05 14.04 14.5 13.49 14.5Z" fill="#2252A0"/>
<path d="M6.5 14.5C5.94 14.5 5.5 14.05 5.5 13.5C5.5 12.95 5.95 12.5 6.5 12.5C7.05 12.5 7.5 12.95 7.5 13.5C7.5 14.05 7.05 14.5 6.5 14.5Z" fill="#2252A0"/>
<path d="M21.98 7.29001V11.29C21.98 14.23 20.63 15.81 17.94 16.04C17.97 15.8 17.98 15.55 17.98 15.29V11.29C17.98 8.10001 16.38 6.5 13.19 6.5H6.79001C6.53001 6.5 6.28001 6.51001 6.04001 6.54001C6.27001 3.85001 7.86001 2.5 10.79 2.5H17.19C20.38 2.5 21.98 4.10001 21.98 7.29001Z" fill="#2252A0"/>
</svg>
