<svg width="24" height="25" viewBox="0 0 24 25" fill="none" xmlns="http://www.w3.org/2000/svg">
<path d="M21.79 21.26L21.07 20.54C21.44 19.98 21.66 19.3 21.66 18.58C21.66 16.6 20.06 15 18.08 15C16.1 15 14.5 16.6 14.5 18.58C14.5 20.56 16.1 22.16 18.08 22.16C18.81 22.16 19.48 21.94 20.04 21.57L20.76 22.29C20.9 22.43 21.09 22.5 21.27 22.5C21.46 22.5 21.64 22.43 21.78 22.29C22.07 22 22.07 21.54 21.79 21.26Z" fill="#2252A0"/>
<path opacity="0.4" d="M2.03 15.13C2.03 15.16 2.00999 15.2 2.00999 15.23C2.92999 17.07 4.43 18.58 6.27 19.49C6.3 19.49 6.33999 19.47 6.37 19.47C6.02999 18.31 5.77 17.12 5.58 15.93C4.38 15.73 3.19 15.47 2.03 15.13Z" fill="#2252A0"/>
<path opacity="0.4" d="M19.07 6.92999C18.13 4.95999 16.54 3.37 14.58 2.44C14.94 3.63 15.24 4.85001 15.44 6.07001C16.66 6.27001 17.88 6.55999 19.07 6.92999Z" fill="#2252A0"/>
<path opacity="0.4" d="M1.92999 6.93002C3.12999 6.57002 4.35001 6.27004 5.57001 6.07004C5.77001 4.88004 6.02 3.70004 6.36 2.54004C6.33 2.54004 6.28999 2.52002 6.25999 2.52002C4.37999 3.45002 2.84999 5.02002 1.92999 6.93002Z" fill="#2252A0"/>
<path opacity="0.4" d="M13.82 5.85999C13.58 4.55999 13.28 3.26 12.85 2C12.83 1.93 12.83 1.87001 12.82 1.79001C12.08 1.61001 11.3 1.48999 10.5 1.48999C9.69 1.48999 8.92 1.60001 8.17 1.79001C8.16 1.86001 8.16999 1.92 8.14999 2C7.72999 3.26 7.41999 4.55999 7.17999 5.85999C9.38999 5.61999 11.61 5.61999 13.82 5.85999Z" fill="#2252A0"/>
<path opacity="0.4" d="M5.36 7.67999C4.05 7.91999 2.76 8.21999 1.5 8.64999C1.43 8.66999 1.36999 8.66999 1.28999 8.67999C1.10999 9.41999 0.990005 10.2 0.990005 11C0.990005 11.81 1.09999 12.58 1.28999 13.33C1.35999 13.34 1.42 13.33 1.5 13.35C2.76 13.77 4.05 14.08 5.36 14.32C5.12 12.11 5.12 9.88999 5.36 7.67999Z" fill="#2252A0"/>
<path opacity="0.4" d="M19.7 8.67999C19.63 8.67999 19.57 8.66999 19.49 8.64999C18.23 8.22999 16.93 7.91999 15.63 7.67999C15.88 9.88999 15.88 12.11 15.63 14.31C16.93 14.07 18.23 13.77 19.49 13.34C19.56 13.32 19.62 13.33 19.7 13.32C19.88 12.57 20 11.8 20 10.99C20 10.2 19.89 9.42999 19.7 8.67999Z" fill="#2252A0"/>
<path opacity="0.4" d="M7.17999 16.14C7.41999 17.45 7.71999 18.74 8.14999 20C8.16999 20.07 8.16 20.13 8.17 20.21C8.92 20.39 9.69 20.51 10.5 20.51C11.3 20.51 12.08 20.4 12.82 20.21C12.83 20.14 12.83 20.08 12.85 20C13.27 18.74 13.58 17.45 13.82 16.14C12.72 16.26 11.61 16.35 10.5 16.35C9.39 16.34 8.27999 16.26 7.17999 16.14Z" fill="#2252A0"/>
<path opacity="0.4" d="M6.94999 7.44998C6.64999 9.80998 6.64999 12.19 6.94999 14.56C9.30999 14.86 11.69 14.86 14.06 14.56C14.36 12.2 14.36 9.81998 14.06 7.44998C11.69 7.14998 9.30999 7.14998 6.94999 7.44998Z" fill="#2252A0"/>
</svg>
