<svg width="24" height="25" viewBox="0 0 24 25" fill="none" xmlns="http://www.w3.org/2000/svg">
<path opacity="0.4" d="M20.1 7.43998C20.1 7.97998 19.81 8.46995 19.35 8.71995L17.61 9.65995L16.13 10.45L13.06 12.11C12.73 12.29 12.37 12.38 12 12.38C11.63 12.38 11.27 12.29 10.94 12.11L4.64999 8.71995C4.18999 8.46995 3.89999 7.97998 3.89999 7.43998C3.89999 6.89998 4.18999 6.40995 4.64999 6.15995L6.62 5.09996L8.19 4.24998L10.94 2.77C11.6 2.41 12.4 2.41 13.06 2.77L19.35 6.15995C19.81 6.40995 20.1 6.89998 20.1 7.43998Z" fill="#2252A0"/>
<path opacity="0.4" d="M9.89999 13.29L4.04999 10.36C3.59999 10.13 3.07999 10.16 2.64999 10.42C2.21999 10.68 1.97 11.14 1.97 11.64V17.17C1.97 18.13 2.49999 18.99 3.35999 19.42L9.20999 22.3401C9.40999 22.4401 9.63001 22.49 9.85001 22.49C10.11 22.49 10.37 22.42 10.6 22.27C11.03 22.01 11.28 21.55 11.28 21.05V15.52C11.29 14.58 10.76 13.72 9.89999 13.29Z" fill="#2252A0"/>
<path opacity="0.4" d="M22.03 11.65V17.18C22.03 18.13 21.5 18.99 20.64 19.42L14.79 22.35C14.59 22.45 14.37 22.5 14.15 22.5C13.89 22.5 13.63 22.43 13.39 22.28C12.97 22.02 12.71 21.56 12.71 21.06V15.54C12.71 14.58 13.24 13.72 14.1 13.29L16.25 12.22L17.75 11.47L19.95 10.37C20.4 10.14 20.92 10.16 21.35 10.43C21.77 10.69 22.03 11.15 22.03 11.65Z" fill="#2252A0"/>
<path d="M17.61 9.65997L16.13 10.45L6.62 5.09998L8.19 4.25L17.37 9.42999C17.47 9.48999 17.55 9.56997 17.61 9.65997Z" fill="#2252A0"/>
<path d="M17.75 11.47V13.74C17.75 14.15 17.41 14.49 17 14.49C16.59 14.49 16.25 14.15 16.25 13.74V12.22L17.75 11.47Z" fill="#2252A0"/>
</svg>
